<svg width="17" height="24" viewBox="0 0 17 24" fill="none" xmlns="http://www.w3.org/2000/svg">
<path d="M8.49998 11.4C7.70433 11.4 6.94126 11.0839 6.37866 10.5213C5.81605 9.95871 5.49998 9.19565 5.49998 8.4C5.49998 7.60435 5.81605 6.84129 6.37866 6.27868C6.94126 5.71607 7.70433 5.4 8.49998 5.4C9.29563 5.4 10.0587 5.71607 10.6213 6.27868C11.1839 6.84129 11.5 7.60435 11.5 8.4C11.5 8.79397 11.4224 9.18407 11.2716 9.54805C11.1209 9.91203 10.8999 10.2427 10.6213 10.5213C10.3427 10.7999 10.012 11.0209 9.64803 11.1716C9.28405 11.3224 8.89394 11.4 8.49998 11.4ZM8.49998 0C6.27216 0 4.13558 0.884997 2.56028 2.4603C0.984973 4.03561 0.0999756 6.17218 0.0999756 8.4C0.0999756 14.7 8.49998 24 8.49998 24C8.49998 24 16.9 14.7 16.9 8.4C16.9 6.17218 16.015 4.03561 14.4397 2.4603C12.8644 0.884997 10.7278 0 8.49998 0Z" fill="#AB8B48"/>
</svg>
