<svg width="24" height="24" viewBox="0 0 24 24" fill="none" xmlns="http://www.w3.org/2000/svg">
<path d="M16.7424 15.208L16.1357 15.812C16.1357 15.812 14.6917 17.2467 10.7517 13.3294C6.81176 9.41206 8.25575 7.9774 8.25575 7.9774L8.63708 7.59607C9.57974 6.66008 9.66908 5.15609 8.84642 4.05743L7.16643 1.81344C6.14777 0.45345 4.18111 0.273451 3.01446 1.43344L0.921135 3.51343C0.343806 4.08943 -0.0428584 4.83342 0.00380797 5.66008C0.123807 7.77607 1.08113 12.3267 6.41976 17.636C12.0824 23.2653 17.3957 23.4893 19.5677 23.2866C20.2557 23.2226 20.853 22.8733 21.3343 22.3933L23.2277 20.5106C24.5076 19.24 24.1476 17.06 22.5103 16.1707L19.9637 14.7854C18.889 14.2027 17.5824 14.3734 16.7424 15.208Z" fill="#AB8B48"/>
</svg>
