<svg xmlns="http://www.w3.org/2000/svg" viewBox="0 0 2750 620"><defs><style>.cls-1{fill:#07535a;}.cls-2{fill:#ab8b48;}</style></defs><title>Tropique Logo - Vertical 1</title><g id="Layer_2" data-name="Layer 2"><path class="cls-1" d="M2712.49,431.35q-24.4,56.08-149.83,56.06-90.33,0-245.53-31.51-97.77-20.14-200.34-30.86-76.53-8-141-10-21.9-.69-42.36-.69c-5.35,0-10.45,0-15.37.05-1.26-.05-2.61-.05-3.89-.05-2.29,0-4.53,0-6.75.09a17.34,17.34,0,0,0-2,0,541.73,541.73,0,0,0-126.48,16.43l55.62-32.12a260.26,260.26,0,0,0,38.51-8.79q22.89-6.48,48.41-24t39.66-38.9q30.51-45,30.5-103.72,0-50.31-23.25-91.86T1899.7,68.74a220.39,220.39,0,0,0-94.17-21.16q-78.94,0-131.36,47.66t-52.42,126.18q0,80.84,51.66,129.65T1807,399.87q13.74,0,25.56-1.14l-46.51,26.67c-3.78,2-7.44,3.89-11,5.68-.53.27-1,.55-1.58.8l-.3.14-.68.34a14.72,14.72,0,0,1-1.44.55c-.74.21-1.47.39-2.2.62-.48.11-1,.25-1.44.39q-12.81,3.57-25.06,7.78c-11.55,3.7-20.79,6.88-27.86,9.49Q1708,453.59,1703,456a651.57,651.57,0,0,1,172.5-22.86q20.35,0,40.32,1.22a557.66,557.66,0,0,1,73.35,8.48c1.58.3,3.18.58,4.76.85l4.46.82,7.37,1.47c2.72.55,5.45,1.12,8.21,1.71.37.07.76.14,1.13.23q2.78.58,5.55,1.22c1.17.27,2.34.52,3.51.8q69.39,15.72,152.68,47c6.63,2.49,13.2,4.94,19.58,7.25,1.1.44,2.11.83,3.21,1.17,0,0,0,.05,0,.05q78.09,28.52,129.16,40.65,58.48,13.85,129.69,13.85,108.42,0,176.43-35.58t80.75-92.9ZM1810.1,397.58q-65.58,0-98.36-41.18-15.66-19.84-24-55.28t-8.39-77.8q0-41.9,8.39-77.56t24-55.88q32.77-41.14,94.15-41.16,62.53,0,95.32,42.31,16,20.6,24.41,56.24a333.36,333.36,0,0,1,8.38,76.44q0,41.94-8.58,77.41t-24.57,55.28Q1867.28,397.58,1810.1,397.58Z"/><path class="cls-1" d="M34.33,123.27l1.92-71.1h310.4l1.53,71.1h-.76q-5.73-33.63-15.67-48.55t-21.6-18.35q-11.67-3.43-39.57-3.44H215.91V304.09q0,40.14,1.92,52.75T228,375.38q8.22,5.92,31.15,5.93h16.44v.76H105.82v-.76H123.4q21.79,0,30.2-5.54t10.9-17.21Q167,346.91,167,304.09V52.93H116.52q-32.88,0-44.34,3.25T50.77,75.1q-9.94,15.69-14.91,48.17Z"/><path class="cls-1" d="M641,382.07q-30.59-21.4-74.93-84.86Q550,273.89,532.82,252.67t-23.89-25.8q-6.69-4.59-20.45-4.59H475.1v81.81q0,40.14,1.91,52.75T487,375.38q8,5.92,31.35,5.93h16.43v.76H371.5v-.76h11.09q21.8,0,30.2-5.54t10.7-17.21q2.29-11.65,2.3-54.47V123.27q0-40.51-2.3-52.37T413.36,54.65q-7.85-4.4-33.45-4.39h-5.73V48.73l126.15-1.15q48.54,0,79.13,9t49.31,29.63q18.74,20.64,18.74,49.31,0,33.27-24.47,57T550.79,221.9q21.4,10.32,68.81,74.16,38.61,52,60.78,68.05t52,17.2v.76ZM514.09,220q19.88-1.16,34.79-5.74T573,201.06q9.18-8.59,14.34-22.74t5.16-39a172.14,172.14,0,0,0-4.59-39.18q-4.59-19.68-13.38-29.63-18-21.78-78-21.78-9.18,0-21.41,1.14V221.52Z"/><path class="cls-1" d="M1250.74,304.09q0,40.52,1.53,52.75,1.9,12.62,10.32,18.54t31.35,5.93H1305v.76h-156v-.76h9.18q21.78,0,30.2-5.54t10.7-17.21q2.3-11.65,2.3-54.47V123.27q0-40.51-2.3-52.37T1189,54.65q-7.85-4.4-33.83-4.39h-6.12V48.73l122.71.38q52.77,0,81.24,8.21t46.64,29.25q18.15,21,18.15,53.14,0,27.9-12.42,49.31a79.94,79.94,0,0,1-35.55,32.5q-23.13,11.08-82,11.08h-37.08Zm24.08-73.4q29.43,0,47.6-5.93t30-24.65q5.73-8.79,9-25.42a167,167,0,0,0,3.25-31.92,170.31,170.31,0,0,0-5.35-42.82Q1354,79.31,1344,69.75q-21-19.5-67.28-19.49-17.19,0-26,.76V230.69Z"/><path class="cls-1" d="M1440.35,52.17h155.58v.76h-7.26q-24.86,0-32.68,4.21t-10.52,15.48Q1542.8,83.9,1542.8,137V304.09q0,40.52,1.91,52.75,1.9,12.62,10.13,18.54t31.15,5.93h9.94v.76H1440.35v-.76h9.94q22.15,0,30.58-5.54t10.51-17.21q2.1-11.65,2.1-54.47V137q0-51.6-2.29-63.27t-9.94-16.24q-7.65-4.59-33.64-4.59h-7.26Z"/><path class="cls-1" d="M2401.77,50.26V51q-29.05,1.92-39.76,10.32-11.09,8.41-13.57,19.31T2346,122.51V236q0,66.14-2.3,79.9a104.07,104.07,0,0,1-4.78,19.88q-2.87,7.65-10.13,16.82-16,20.26-45.49,32.49t-68,12.23q-45.49,0-77-15.48t-44.92-39.95q-13.38-24.45-13.38-65.75l.38-45.87V124.42q0-40.9-2.48-52.57t-10.13-16.24Q2060,51,2034,51h-7.65v-.76H2182V51h-6.88q-25.23,0-32.88,4.21t-10.32,15.48q-2.68,11.28-2.68,53.71V231.83q0,80.29,5.17,103.6t28.86,40.91q22.55,16.43,63.07,16.44,24.85,0,55-10.32a99.19,99.19,0,0,0,26.76-14q12.22-9,18.73-18.54a78.11,78.11,0,0,0,13.38-32.88q2.67-18.34,2.68-82.95V117.92q0-28.68-3.25-40.33a30.12,30.12,0,0,0-14-18.16Q2315,52.94,2287.85,51v-.76Z"/><path class="cls-1" d="M2699.56,286.88l-7.26,95.19H2420.88v-.76h6.88q25.6,0,33.07-6.69a29.49,29.49,0,0,0,9.37-17.21q1.9-10.5,1.91-53.32V137q0-49.69-2.11-61.93t-9.75-17.2q-7.64-5-32.49-5v-.76h232.81l8,84.86h-1.15a224.47,224.47,0,0,0-11.08-35.17q-7.27-18-13.39-26-11.85-14.91-27.9-18.73t-46.64-3.83H2521v153.3h36.31q24.86,0,34.79-4.21t13-12.8q3.06-8.61,3.06-33.84h1.14v116.6h-1.14q0-39.37-4.78-48.93t-14-12.43q-9.18-2.87-31-2.87H2521V299.5q0,60.4,7.84,71.1t41.86,10.71h25.61q26.74,0,44.15-6.88t33.07-28.29q15.66-21.4,24.84-59.26Z"/><path class="cls-1" d="M402.3,559.75V495.39H377.4v-6.47h57.27v6.47H409.78v64.36Z"/><path class="cls-1" d="M443.68,559.75V506.63h6.88V521.1l-.71-2.53a17.45,17.45,0,0,1,7.49-9.26,24.75,24.75,0,0,1,13.05-3.19v7a5.51,5.51,0,0,1-.81-.05,7.34,7.34,0,0,0-.81,0q-8.4,0-13.15,5.11t-4.76,14.52v27.12Z"/><path class="cls-1" d="M504.59,560.25a27.29,27.29,0,0,1-13.86-3.49,25.61,25.61,0,0,1-9.61-9.66,29.51,29.51,0,0,1,0-28,25.43,25.43,0,0,1,9.61-9.51,29.77,29.77,0,0,1,27.88.05,25.58,25.58,0,0,1,9.61,9.51,27.44,27.44,0,0,1,3.49,14,27.74,27.74,0,0,1-3.49,14,25.19,25.19,0,0,1-9.66,9.61A27.86,27.86,0,0,1,504.59,560.25Zm0-6.37a20,20,0,0,0,10.22-2.58,18.48,18.48,0,0,0,7-7.29,24.32,24.32,0,0,0,0-21.8,18.62,18.62,0,0,0-7-7.24,21.14,21.14,0,0,0-20.24,0,19.09,19.09,0,0,0-7.08,7.24,23.9,23.9,0,0,0,0,21.8,19,19,0,0,0,7,7.29A19.55,19.55,0,0,0,504.59,553.88Z"/><path class="cls-1" d="M546.38,579.38V506.63h6.88v16l-.71,10.63,1,10.72v35.42Zm27.42-19.13a24.58,24.58,0,0,1-12.44-3.18,23.14,23.14,0,0,1-8.86-9.21,30.36,30.36,0,0,1-3.29-14.72,30.78,30.78,0,0,1,3.24-14.73,22.4,22.4,0,0,1,8.8-9.15,25.14,25.14,0,0,1,12.55-3.14,27.24,27.24,0,0,1,13.61,3.39,24.43,24.43,0,0,1,9.46,9.51,30.78,30.78,0,0,1,0,28.28,24.84,24.84,0,0,1-9.46,9.51A26.86,26.86,0,0,1,573.8,560.25Zm-.51-6.37a19.81,19.81,0,0,0,10.12-2.58A18.9,18.9,0,0,0,590.5,544a21.92,21.92,0,0,0,2.63-10.87,21.66,21.66,0,0,0-2.63-10.83,19.16,19.16,0,0,0-17.21-9.92A19.8,19.8,0,0,0,563.13,515a18.89,18.89,0,0,0-7.09,7.29,22,22,0,0,0-2.58,10.83A22.23,22.23,0,0,0,556,544a18.36,18.36,0,0,0,7.09,7.29A20.07,20.07,0,0,0,573.29,553.88Z"/><path class="cls-1" d="M618.62,494.89a5.09,5.09,0,0,1-3.74-1.52,5,5,0,0,1-1.52-3.64,4.81,4.81,0,0,1,1.52-3.59,5.17,5.17,0,0,1,3.74-1.47,5.26,5.26,0,0,1,3.75,1.42,4.64,4.64,0,0,1,1.52,3.54,5.17,5.17,0,0,1-1.47,3.74A5.05,5.05,0,0,1,618.62,494.89ZM615,559.75V506.63h7.19v53.12Z"/><path class="cls-1" d="M664.26,560.25a28.35,28.35,0,0,1-14.12-3.49,25.39,25.39,0,0,1-9.76-9.61,29.61,29.61,0,0,1,0-28.08,25.13,25.13,0,0,1,9.76-9.51,28.75,28.75,0,0,1,14.12-3.44,27.89,27.89,0,0,1,12.24,2.63,19.92,19.92,0,0,1,8.6,7.89l-5.36,3.65a16.81,16.81,0,0,0-6.78-6,21.3,21.3,0,0,0-19,.65,18.81,18.81,0,0,0-7.19,7.24,24,24,0,0,0,0,21.85,18.74,18.74,0,0,0,7.19,7.24,21.34,21.34,0,0,0,19,.66,17.08,17.08,0,0,0,6.78-5.87l5.36,3.64a20.3,20.3,0,0,1-8.6,7.84A27.36,27.36,0,0,1,664.26,560.25Z"/><path class="cls-1" d="M714.14,560.25a25.08,25.08,0,0,1-10.37-2,15.43,15.43,0,0,1-6.73-5.46,14.19,14.19,0,0,1-2.33-8.05,14.69,14.69,0,0,1,2-7.54,13.83,13.83,0,0,1,6.47-5.46c3-1.38,7-2.07,12.09-2.07h18.32v5.36H715.46q-7.69,0-10.68,2.73a9.24,9.24,0,0,0,.56,14.07q3.54,2.73,9.91,2.73a19.18,19.18,0,0,0,10.48-2.79,16,16,0,0,0,6.42-8l1.62,5a16.86,16.86,0,0,1-7,8.4Q721.73,560.26,714.14,560.25Zm18.32-.5V548l-.31-1.92V526.46q0-6.78-3.79-10.42t-11.28-3.65a28.26,28.26,0,0,0-9.82,1.72,25.09,25.09,0,0,0-7.89,4.56l-3.24-5.37a28.88,28.88,0,0,1,9.71-5.31,37.78,37.78,0,0,1,11.94-1.87q10.32,0,15.94,5.11t5.62,15.53v33Z"/><path class="cls-1" d="M758.86,559.75V484.67h7.19v75.08Z"/><path class="cls-1" d="M814.11,559.75V488.92h30.56q11.83,0,18.36,4.75t6.53,13.46a17,17,0,0,1-2.68,9.72,16.76,16.76,0,0,1-7.29,6,24.71,24.71,0,0,1-10.07,2l1.72-2.43a29.79,29.79,0,0,1,11.69,2.08,16.75,16.75,0,0,1,7.64,6.17,17.94,17.94,0,0,1,2.73,10.17q0,9-6.62,14t-20,5Zm7.49-6.17h25q9.31,0,14.27-3.19t5-10.17q0-6.88-5-10.07T846.59,527h-25.8v-6.17h23.37q8.51,0,13.21-3.24t4.7-9.61c0-4.31-1.57-7.54-4.7-9.66s-7.54-3.19-13.21-3.19H821.6Z"/><path class="cls-1" d="M910.54,560.25a27.23,27.23,0,0,1-13.86-3.49,25.64,25.64,0,0,1-9.62-9.66,29.51,29.51,0,0,1,0-28,25.46,25.46,0,0,1,9.62-9.51,29.75,29.75,0,0,1,27.87.05,25.61,25.61,0,0,1,9.62,9.51,27.54,27.54,0,0,1,3.49,14,27.85,27.85,0,0,1-3.49,14,25.15,25.15,0,0,1-9.67,9.61A27.82,27.82,0,0,1,910.54,560.25Zm0-6.37a20,20,0,0,0,10.22-2.58,18.48,18.48,0,0,0,7-7.29,24.32,24.32,0,0,0,0-21.8,18.62,18.62,0,0,0-7-7.24,21.14,21.14,0,0,0-20.24,0,19,19,0,0,0-7.08,7.24,23.9,23.9,0,0,0,0,21.8,19,19,0,0,0,7,7.29A19.55,19.55,0,0,0,910.54,553.88Z"/><path class="cls-1" d="M974.28,560.25a26.07,26.07,0,0,1-11.83-2.53,17.9,17.9,0,0,1-7.85-7.58,26.07,26.07,0,0,1-2.78-12.65V506.63H959v30q0,8.49,4.19,12.8t11.79,4.3a19.61,19.61,0,0,0,9.67-2.28,15.13,15.13,0,0,0,6.27-6.63,23.06,23.06,0,0,0,2.17-10.42V506.63h7.19v53.12h-6.88V545.18l1.11,2.63a19.72,19.72,0,0,1-7.84,9.16A23.1,23.1,0,0,1,974.28,560.25Z"/><path class="cls-1" d="M1012,512.6v-6h32.88v6Zm25.09,47.65q-7.48,0-11.54-4t-4-11.44V494.89h7.18v49.48c0,3.1.79,5.5,2.38,7.18s3.86,2.53,6.83,2.53a11.58,11.58,0,0,0,7.89-2.73l2.53,5.16a13.22,13.22,0,0,1-5.11,2.83A20.76,20.76,0,0,1,1037.12,560.25Z"/><path class="cls-1" d="M1065,494.89a5.09,5.09,0,0,1-3.74-1.52,5,5,0,0,1-1.52-3.64,4.81,4.81,0,0,1,1.52-3.59,5.17,5.17,0,0,1,3.74-1.47,5.26,5.26,0,0,1,3.75,1.42,4.64,4.64,0,0,1,1.52,3.54,5.17,5.17,0,0,1-1.47,3.74A5.05,5.05,0,0,1,1065,494.89Zm-3.64,64.86V506.63h7.19v53.12Z"/><path class="cls-1" d="M1109.77,560.25a26.86,26.86,0,0,1-13.61-3.44,24.77,24.77,0,0,1-9.46-9.51,30.78,30.78,0,0,1,0-28.28,24.37,24.37,0,0,1,9.46-9.51,27.24,27.24,0,0,1,13.61-3.39,25.07,25.07,0,0,1,12.6,3.14,22.54,22.54,0,0,1,8.75,9.15,30.78,30.78,0,0,1,3.24,14.73,30.36,30.36,0,0,1-3.29,14.72,23.29,23.29,0,0,1-8.81,9.21A24.53,24.53,0,0,1,1109.77,560.25Zm.5-6.37a20.08,20.08,0,0,0,10.17-2.58,18.49,18.49,0,0,0,7.09-7.29,22.23,22.23,0,0,0,2.58-10.87,22,22,0,0,0-2.58-10.83,19,19,0,0,0-7.09-7.29,19.81,19.81,0,0,0-10.17-2.63,19.15,19.15,0,0,0-17.1,9.92,21.66,21.66,0,0,0-2.63,10.83,21.92,21.92,0,0,0,2.63,10.87,18.9,18.9,0,0,0,7.09,7.29A19.56,19.56,0,0,0,1110.27,553.88Zm19.73,25.5V544l1-10.72-.71-10.63v-16h6.88v72.75Z"/><path class="cls-1" d="M1179.18,560.25a26.11,26.11,0,0,1-11.84-2.53,17.88,17.88,0,0,1-7.84-7.58,26,26,0,0,1-2.78-12.65V506.63h7.18v30q0,8.49,4.2,12.8t11.79,4.3a19.55,19.55,0,0,0,9.66-2.28,15.13,15.13,0,0,0,6.27-6.63,23.06,23.06,0,0,0,2.18-10.42V506.63h7.18v53.12h-6.88V545.18l1.12,2.63a19.68,19.68,0,0,1-7.85,9.16A23.06,23.06,0,0,1,1179.18,560.25Z"/><path class="cls-1" d="M1247.78,560.25a29.44,29.44,0,0,1-14.57-3.49,25.31,25.31,0,0,1-9.81-9.61,27.37,27.37,0,0,1-3.54-14,28.16,28.16,0,0,1,3.38-14,25.22,25.22,0,0,1,9.31-9.56,25.68,25.68,0,0,1,13.31-3.49,26,26,0,0,1,13.31,3.39,24.14,24.14,0,0,1,9.15,9.51,29,29,0,0,1,3.34,14.12c0,.33,0,.69-.05,1.06s0,.76,0,1.16h-46.24V530h42.39l-2.83,2.12a20.9,20.9,0,0,0-2.48-10.27,18.21,18.21,0,0,0-6.73-7,18.86,18.86,0,0,0-9.81-2.53,19.25,19.25,0,0,0-9.82,2.53,17.56,17.56,0,0,0-6.77,7.08,21.85,21.85,0,0,0-2.43,10.43v1.11a20.75,20.75,0,0,0,2.68,10.67,18.6,18.6,0,0,0,7.49,7.19,22.82,22.82,0,0,0,11,2.58,23.61,23.61,0,0,0,9.06-1.72,18.92,18.92,0,0,0,7.24-5.26l4,4.65a22.88,22.88,0,0,1-8.85,6.48A30,30,0,0,1,1247.78,560.25Z"/><path class="cls-1" d="M1321.85,559.75h-7.49V488.92h7.49Zm45-32.68H1321v-6.58h45.83Zm-.71-38.15h7.39v70.83h-7.39Z"/><path class="cls-1" d="M1416.76,560.25a27.3,27.3,0,0,1-13.87-3.49,25.68,25.68,0,0,1-9.61-9.66,29.51,29.51,0,0,1,0-28,25.5,25.5,0,0,1,9.61-9.51,29.77,29.77,0,0,1,27.88.05,25.51,25.51,0,0,1,9.61,9.51,27.44,27.44,0,0,1,3.49,14,27.74,27.74,0,0,1-3.49,14,25.13,25.13,0,0,1-9.66,9.61A27.85,27.85,0,0,1,1416.76,560.25Zm0-6.37A20,20,0,0,0,1427,551.3a18.55,18.55,0,0,0,7-7.29,24.32,24.32,0,0,0,0-21.8,18.69,18.69,0,0,0-7-7.24,21.14,21.14,0,0,0-20.24,0,19,19,0,0,0-7.08,7.24,23.82,23.82,0,0,0,0,21.8,18.9,18.9,0,0,0,7,7.29A19.53,19.53,0,0,0,1416.76,553.88Z"/><path class="cls-1" d="M1450.25,512.6v-6h32.88v6Zm25.09,47.65q-7.48,0-11.53-4t-4-11.44V494.89h7.18v49.48c0,3.1.8,5.5,2.38,7.18s3.86,2.53,6.83,2.53a11.58,11.58,0,0,0,7.89-2.73l2.53,5.16a13.14,13.14,0,0,1-5.11,2.83A20.76,20.76,0,0,1,1475.34,560.25Z"/><path class="cls-1" d="M1520.27,560.25a29.41,29.41,0,0,1-14.57-3.49,25.27,25.27,0,0,1-9.82-9.61,27.47,27.47,0,0,1-3.54-14,28.17,28.17,0,0,1,3.39-14,25.14,25.14,0,0,1,9.31-9.56,25.64,25.64,0,0,1,13.3-3.49,26,26,0,0,1,13.31,3.39,24.17,24.17,0,0,1,9.16,9.51,29.09,29.09,0,0,1,3.34,14.12,10,10,0,0,1-.06,1.06c0,.37,0,.76,0,1.16H1497.8V530h42.4l-2.83,2.12a21,21,0,0,0-2.48-10.27,18.36,18.36,0,0,0-6.73-7,18.89,18.89,0,0,0-9.82-2.53,19.22,19.22,0,0,0-9.81,2.53,17.65,17.65,0,0,0-6.78,7.08,21.85,21.85,0,0,0-2.43,10.43v1.11a20.75,20.75,0,0,0,2.68,10.67,18.72,18.72,0,0,0,7.49,7.19,22.83,22.83,0,0,0,11,2.58,23.56,23.56,0,0,0,9-1.72,18.92,18.92,0,0,0,7.24-5.26l4,4.65A23,23,0,0,1,1532,558,30,30,0,0,1,1520.27,560.25Z"/><path class="cls-1" d="M1558.82,559.75V484.67H1566v75.08Z"/><path class="cls-2" d="M1106.14,214.79c0-1,0-2-.08-3.06s-.07-2.21-.13-3.32c0-.88-.1-1.76-.16-2.65,0-.6-.07-1.2-.13-1.8-.05-.8-.12-1.59-.19-2.39q-7.21-.81-14.54-1h-.14q-2.79-.09-5.58-.09H1084a178,178,0,0,0-125.48,52.46q-3.82,3.84-7.41,7.86c-1.13,1.27-2.25,2.57-3.34,3.87l-.12.14q-3.63,4.35-7,8.87a177.92,177.92,0,0,0-10.16,15.4c-.58,1-1.16,2-1.72,3a91.91,91.91,0,0,1,2.81-67c.72-1.55,1.46-3.07,2.23-4.59.38-.77.77-1.52,1.16-2.28l.12-.22c.36-.68.72-1.37,1.1-2a3.41,3.41,0,0,1,.17-.33c1.3-2.39,2.66-4.74,4.09-7.07q4-6.6,8.67-12.85,1.76-2.37,3.6-4.68l.54-.67c2-2.54,4.16-5,6.35-7.44q2.9-3.21,6-6.28A168.9,168.9,0,0,1,1064.72,128a161.65,161.65,0,0,1,23.55,56.4c.13.65.27,1.31.39,2s.26,1.37.38,2.05.25,1.42.38,2.14.24,1.47.35,2.21.2,1.27.28,1.91.15,1,.22,1.56c0,0,0,.06,0,.09q7.46.19,14.74,1c-.09-.85-.2-1.7-.3-2.54-.19-1.41-.38-2.82-.6-4.22-.11-.69-.22-1.38-.32-2.07a.57.57,0,0,1,0-.18c-.37-2.16-.77-4.32-1.21-6.46-.18-.93-.38-1.86-.59-2.79-.29-1.28-.59-2.57-.9-3.86-.19-.72-.38-1.46-.56-2.18s-.43-1.62-.66-2.43-.45-1.62-.68-2.42-.49-1.67-.75-2.49c-.15-.52-.32-1-.48-1.55-.26-.82-.53-1.65-.8-2.46s-.57-1.73-.89-2.59c-.18-.56-.38-1.11-.58-1.66s-.32-.86-.47-1.29c-.32-.88-.66-1.76-1-2.63s-.64-1.63-1-2.45-.67-1.61-1-2.42a169.87,169.87,0,0,0-11.06-21.88q-3.08-5.16-6.48-10.05c-.94-1.34-1.88-2.67-2.85-4l0,0a177.87,177.87,0,0,0-57.31-50.26q-5.79-3.19-11.85-5.95l-.06,0A176,176,0,0,0,987,65.72a181.18,181.18,0,0,0-56.45,59.35q-1.21,2.06-2.36,4.14-1.17-2.09-2.37-4.14a181.58,181.58,0,0,0-55.61-58.8,176.63,176.63,0,0,0-15.41-9.17l0,0Q848.81,59.8,843.12,63a177,177,0,0,0-35.34,26q-4.95,4.67-9.51,9.69a178.23,178.23,0,0,0-11.62,14.22l0,0a.33.33,0,0,1,.1,0q8.4.7,16.58,2.16h.07a163.21,163.21,0,0,1,26.44-25.84q3.83-3,7.85-5.72a160.1,160.1,0,0,1,21-12.2,170.57,170.57,0,0,1,32.24,25.33c1.15,1.15,2.29,2.32,3.38,3.49a170.08,170.08,0,0,1,25.29,34.48c.13.24.27.47.39.71l.4.74c.76,1.39,1.51,2.8,2.2,4.23.27.54.54,1.07.8,1.61a91.94,91.94,0,0,1,4.34,66.38c-.61-1.1-1.24-2.19-1.88-3.27a177.54,177.54,0,0,0-16.5-23.53q-1.66-2-3.42-4-3.87-4.43-8.07-8.62a177.68,177.68,0,0,0-97.36-50.1q-8.18-1.35-16.54-1.93a.27.27,0,0,0-.09,0q-3.39,4.88-6.44,10a170.32,170.32,0,0,0-9.28,17.84l-.87,2c-.32.75-.66,1.51-1,2.27s-.63,1.51-.94,2.27-.66,1.63-1,2.45-.67,1.74-1,2.62c-.22.6-.45,1.22-.67,1.84l-.48,1.37c-.27.77-.53,1.55-.79,2.33h0c-.27.82-.54,1.64-.8,2.47-.17.5-.32,1-.48,1.51-.25.83-.5,1.66-.74,2.5s-.45,1.6-.68,2.41-.45,1.62-.65,2.43-.38,1.41-.54,2.13c-.09.33-.17.66-.25,1-.27,1.11-.52,2.21-.76,3.33s-.54,2.52-.79,3.79c-.16.86-.33,1.72-.49,2.58s-.29,1.63-.42,2.45c-.37,2.19-.7,4.39-1,6.6-.08.7-.17,1.41-.25,2.11,4.85-.45,9.77-.73,14.73-.81a.2.2,0,0,1,0-.07c0-.11,0-.23,0-.34s0-.25,0-.37l.09-.71c.11-.76.22-1.51.34-2.27.24-1.59.51-3.18.8-4.75.13-.68.26-1.35.4-2s.26-1.3.4-2c.18-.84.37-1.68.55-2.51a161.51,161.51,0,0,1,22.7-53,168.88,168.88,0,0,1,97.18,48.28,171.18,171.18,0,0,1,12.33,13.72l.38.48c1.24,1.54,2.44,3.08,3.6,4.66q4.74,6.34,8.83,13.06c1.43,2.33,2.79,4.68,4.09,7.07l.08.15c.82,1.51,1.62,3,2.39,4.55.07.13.13.27.19.4,1,1.87,1.84,3.75,2.7,5.64-.2.5-.39,1-.58,1.52a96.82,96.82,0,0,0-4.53,52.55c-1.52-2.27-3.1-4.51-4.72-6.72-2.21-3-4.54-6-7-8.85l-.12-.14c-1.09-1.3-2.2-2.6-3.34-3.87-1.37-1.55-2.77-3.07-4.2-4.58q-1.59-1.66-3.21-3.28l-.43-.43a178,178,0,0,0-126.22-52q-1.67,0-3.33,0-7.4.14-14.67.86h0c0,.12,0,.22,0,.34-.14,1.49-.25,3-.34,4.49-.06.75-.1,1.49-.14,2.25,0,.39,0,.79,0,1.18h0c0,.7-.06,1.39-.08,2.1s0,1.49-.07,2.24c0,.3,0,.6,0,.9,0,.88,0,1.78,0,2.66,0,1.52,0,3.05.07,4.56l0,1h0c0,1.15.08,2.3.13,3.44v.09c0,.73.08,1.47.14,2.21s.09,1.4.14,2.1c0,.31,0,.63.07.95.1,1.15.2,2.3.32,3.45.09.87.18,1.75.28,2.62q.36,3.25.87,6.48c.11.71.23,1.43.34,2.15a175.18,175.18,0,0,0,9.12,33.79.19.19,0,0,1,0,.07h0c1.11-.05,2.22-.08,3.33-.1,1.28,0,2.55,0,3.84,0,1.09,0,2.18,0,3.26,0,1.75,0,3.5.08,5.24.17v0c-.51-1.24-1-2.48-1.51-3.74-.68-1.72-1.34-3.45-2-5.19a158.56,158.56,0,0,1-6.4-23.7c-.49-2.54-.91-5.09-1.28-7.68-.08-.63-.16-1.25-.25-1.88,0-.14,0-.27,0-.41-.16-1.26-.31-2.53-.43-3.81a1.64,1.64,0,0,1,0-.22c-.14-1.29-.25-2.59-.35-3.88a1.09,1.09,0,0,1,0-.18q-.45-6.1-.45-12.29c0-1,0-2,0-3,0-1.24,0-2.47.09-3.69h0c1.15,0,2.32-.05,3.49-.05a169,169,0,0,1,118.25,47.81l2,2c.57.57,1.14,1.15,1.7,1.73s1.39,1.43,2.07,2.16h0c.79.84,1.57,1.68,2.33,2.53.62.68,1.21,1.35,1.8,2,.45.51.9,1,1.34,1.56s.81.94,1.2,1.42.94,1.12,1.4,1.69l.42.52c1.26,1.56,2.48,3.13,3.68,4.73q4.86,6.46,9,13.3c1.35,2.2,2.65,4.43,3.88,6.68.13.21.24.43.36.63l.08.15c.23.41.46.84.66,1.26s.45.81.66,1.23.53,1,.77,1.52a91.89,91.89,0,0,1,4.61,71.2c-.36-.62-.73-1.24-1.09-1.87-2.2-3.75-4.55-7.45-7-11q-3.93-5.68-8.32-11.09c-.58-.72-1.16-1.43-1.76-2.13q-1.7-2-3.46-4c-.64-.72-1.3-1.45-2-2.16-.92-1-1.88-2-2.83-3s-1.74-1.79-2.62-2.67a177.78,177.78,0,0,0-116.28-52.16c-3.44-.21-6.9-.3-10.37-.3h-.56c-1.66,0-3.32,0-5,.08h0c.55,1.34,1.11,2.66,1.69,4,.92,2.11,1.89,4.2,2.89,6.27a177.6,177.6,0,0,0,72,76.65c2.87,1.63,5.78,3.19,8.75,4.65,1.55.77,3.1,1.51,4.67,2.22.89.42,1.81.83,2.71,1.23A174.76,174.76,0,0,0,900.2,392l1.42.23c.25,0,.49.08.74.11l2.23.32c.65.09,1.3.19,2,.27l1.88.23q.83.11,1.65.18c1.78.2,3.57.37,5.38.5l.19,0h.05l2,.15,1.66.09.33,0,.32,0h.23l.54,0c.57,0,1.15.06,1.72.08l1.1,0,1.17,0,.81,0h.5l1.38,0H931l2.3,0q1.15,0,2.31-.06h.76c.93,0,1.85-.08,2.76-.13l1.48-.09h.12c2.29-.15,4.58-.33,6.85-.57l2-.21.19,0,2-.25,2.17-.29.91-.12,1.33-.21,2.19-.34c1.78-.31,3.54-.63,5.31-1L964,391l2.46-.51c.77-.17,1.53-.33,2.29-.51s1.43-.33,2.15-.51,1.61-.39,2.42-.6c1.22-.32,2.44-.64,3.67-1A169.84,169.84,0,0,0,999.17,380c.89-.38,1.78-.77,2.66-1.17q2.4-1.07,4.74-2.22,4.56-2.2,9-4.67a176.79,176.79,0,0,0,23-15.39q5.2-4.1,10.09-8.56a177.23,177.23,0,0,0,39.74-53.21c1.63-3.34,3.16-6.73,4.56-10.18h0c-2.58-.12-5.16-.17-7.75-.17s-5.4.06-8.09.19A177.81,177.81,0,0,0,960.15,335.3c-.55.53-1.09,1.07-1.63,1.61-.69.7-1.38,1.39-2,2.1a7.4,7.4,0,0,0-.55.57c-1,1-1.91,2-2.85,3-.66.71-1.31,1.44-2,2.16-1.17,1.32-2.33,2.66-3.46,4-.59.7-1.18,1.42-1.75,2.14q-4.41,5.4-8.32,11.09c-1,1.39-1.9,2.79-2.82,4.2a97.23,97.23,0,0,0-3.84-55.67h0c.1-.22.19-.42.3-.63.23-.5.45-1,.69-1.5.62-1.32,1.27-2.65,1.94-4l.15-.28c.71-1.44,1.46-2.86,2.23-4.27l.17-.33c.12-.2.23-.42.36-.63,1.23-2.25,2.53-4.48,3.88-6.68q4.11-6.72,8.89-13.09c1.19-1.6,2.41-3.19,3.68-4.74.19-.24.37-.48.57-.72a171.93,171.93,0,0,1,11.85-13.12,169,169,0,0,1,120.3-49.83c1.86,0,3.73,0,5.57.1,0,.08,0,.15,0,.24v.19c0,.91.08,1.81.1,2.71v.42c0,1,0,2.06,0,3.09,0,3.43-.11,6.84-.31,10.24s-.55,7-1,10.41c-.24,1.85-.51,3.68-.8,5.52A160.41,160.41,0,0,1,1079,280.38v0c2.07-.07,4.14-.1,6.23-.1q4.71,0,9.36.24h0a.25.25,0,0,0,0-.07,175,175,0,0,0,7-23q1.25-5.39,2.17-10.89c.36-2.18.68-4.38,1-6.58,0-.32.08-.63.11-1h0c.24-1.88.44-3.79.61-5.71.07-.75.13-1.5.18-2.24.12-1.5.21-3,.29-4.51l0-.67c.07-1.29.11-2.57.14-3.86,0-1.51.06-3,.06-4.55C1106.16,216.59,1106.15,215.69,1106.14,214.79ZM930.93,146.63c.94-2.06,1.92-4.12,2.94-6.14.76-1.52,1.56-3,2.38-4.54l.15-.29a172.09,172.09,0,0,1,62.39-64.88,163.5,163.5,0,0,1,56.14,44,.08.08,0,0,0,0,0h.08s0,0,0,0c5.5-.9,11.07-1.57,16.72-2,1,1.31,1.92,2.63,2.84,4q-8.41.48-16.69,1.74a177.72,177.72,0,0,0-99.36,50.42q-4.2,4.2-8.07,8.62-1.74,2-3.41,4a176.67,176.67,0,0,0-11.27,15.17,97,97,0,0,0-4.84-50.05ZM915.81,379.3c-1-.08-2.07-.18-3.1-.28h-.12c-.37,0-.73-.07-1.09-.12-.78-.09-1.56-.17-2.34-.28-1-.12-2.06-.26-3.09-.41-1.39-.2-2.77-.42-4.15-.65a160.71,160.71,0,0,1-30.68-8.42c-1.57-.6-3.14-1.22-4.67-1.88A163.33,163.33,0,0,1,787,295.56,168.73,168.73,0,0,1,887.1,341q1.9,1.79,3.77,3.66c.74.73,1.47,1.47,2.18,2.22,1,1,1.91,2,2.84,3,.46.48.91,1,1.35,1.48q2.84,3.15,5.48,6.4l.42.52c1.26,1.56,2.48,3.13,3.68,4.73q4.86,6.47,9,13.3c.65,1.05,1.28,2.11,1.89,3.16C917.1,379.41,916.46,379.36,915.81,379.3Zm24.83-3q4.11-6.72,8.89-13.09c1.19-1.6,2.41-3.19,3.68-4.74.19-.24.37-.48.57-.72q2.64-3.25,5.48-6.4l1.27-1.4c.93-1,1.88-2,2.84-3,.6-.63,1.21-1.25,1.83-1.87l.43-.43c1.13-1.13,2.26-2.23,3.41-3.31a4,4,0,0,1,.36-.35,168.75,168.75,0,0,1,102.32-45.58,163.3,163.3,0,0,1-54.74,58.7q-4,2.61-8.19,5a161.86,161.86,0,0,1-18.12,8.78c-1.57.65-3.14,1.26-4.74,1.86a160.22,160.22,0,0,1-31.53,8.24h0c-1.37.23-2.75.42-4.14.59l-2.35.29q-1.78.21-3.57.36c-1.21.12-2.43.22-3.65.29-.68.06-1.35.1-2,.13C939.31,378.47,940,377.37,940.64,376.28Z"/><path class="cls-2" d="M874.86,64.46l-.11,0,.06,0,.1,0a161.37,161.37,0,0,1,28.87-7.35l2.4-.36,2.45-.34c1-.13,2.09-.26,3.13-.36s2-.21,3-.3l1-.08c1-.09,2-.16,3-.22h.14c3.46-.21,6.92-.32,10.42-.32,1.15,0,2.29,0,3.44,0,1.65,0,3.3.09,4.93.17s3.27.19,4.9.33l.7.06c.87.07,1.73.14,2.6.24l.67.07c.85.08,1.69.19,2.54.29,1,.12,2.09.26,3.12.4a161.25,161.25,0,0,1,30,7.24l.21.08.06,0-.21-.08q7.53-5.11,15.58-9.5l0,0a173.93,173.93,0,0,0-27.68-9c-1.37-.32-2.74-.63-4.11-.92-2.54-.54-5.09-1-7.67-1.45,0,0,0,0,0,0-2.18-.36-4.37-.69-6.58-1-1.47-.18-3-.35-4.45-.5s-3-.28-4.46-.4-3-.21-4.51-.29-3-.13-4.53-.16-3-.07-4.56-.07c-2.28,0-4.57,0-6.83.14l-1.62.06c-2.48.11-4.93.29-7.38.51-.74.06-1.49.13-2.23.21-1.49.15-3,.32-4.43.5l-2.21.3c-.74.11-1.47.21-2.2.33l-1.47.22c-.42.08-.85.14-1.26.21A175,175,0,0,0,859.45,55l0,0Q867.42,59.36,874.86,64.46Z"/></g></svg>