<?xml version="1.0" encoding="utf-8"?>
<!-- Generator: Adobe Illustrator 23.0.3, SVG Export Plug-In . SVG Version: 6.00 Build 0)  -->
<svg version="1.0" id="Layer_1" xmlns="http://www.w3.org/2000/svg" xmlns:xlink="http://www.w3.org/1999/xlink" x="0px" y="0px"
	 viewBox="0 0 71 36" enable-background="new 0 0 71 36" xml:space="preserve">
<g>
	<path fill="#FDB812" d="M20.73,25.092c-2.732,0-4.954,2.222-4.954,4.954c0,2.73,2.222,4.952,4.954,4.952
		c2.732,0,4.954-2.222,4.954-4.952C25.684,27.314,23.462,25.092,20.73,25.092"/>
	<path fill="#FF2938" d="M6.578,25.092c-2.732,0-4.954,2.222-4.954,4.954c0,2.73,2.222,4.952,4.954,4.952s4.954-2.222,4.954-4.952
		C11.532,27.314,9.31,25.092,6.578,25.092"/>
	<path fill="#00B057" d="M34.884,25.092c-2.732,0-4.954,2.222-4.954,4.954c0,2.73,2.222,4.954,4.954,4.954
		c2.732,0,4.954-2.224,4.954-4.954C39.838,27.314,37.616,25.092,34.884,25.092"/>
	<path fill="#00AAE0" d="M63.189,25.092c-2.732,0-4.954,2.222-4.954,4.954c0,2.73,2.222,4.952,4.954,4.952
		c2.732,0,4.952-2.222,4.952-4.952C68.141,27.314,65.92,25.092,63.189,25.092"/>
	<path fill="#AF38B1" d="M49.036,25.092c-2.732,0-4.954,2.222-4.954,4.954c0,2.73,2.222,4.952,4.954,4.952
		c2.732,0,4.954-2.222,4.954-4.952C53.99,27.314,51.768,25.092,49.036,25.092"/>
	<path fill="#5F5D5B" d="M10.421,10.966c0-2.139-1.62-3.761-3.763-3.761c-2.141,0-3.761,1.622-3.761,3.761
		c0,2.142,1.62,3.761,3.761,3.761C8.801,14.727,10.421,13.109,10.421,10.966 M0.951,10.966c0-3.179,2.55-5.578,5.707-5.578
		s5.707,2.377,5.707,5.556v4.76c0,0.562-0.387,0.973-0.993,0.973c-0.627,0-0.995-0.411-0.995-0.973v-1.148h-0.129
		c-0.629,1.102-1.902,1.988-3.741,1.988C3.459,16.544,0.951,14.145,0.951,10.966"/>
	<path fill="#5F5D5B" d="M24.522,10.967c0-2.139-1.622-3.761-3.761-3.761c-2.142,0-3.765,1.622-3.765,3.761
		c0,2.141,1.622,3.761,3.765,3.761C22.9,14.728,24.522,13.107,24.522,10.967 M17.256,20.135c-0.518-0.258-0.758-0.713-0.54-1.233
		c0.236-0.54,0.755-0.735,1.253-0.476c0.757,0.347,1.686,0.586,2.617,0.586c2.442,0,3.892-1.426,3.892-3.85v-0.604h-0.131
		c-0.626,1.102-1.902,1.988-3.741,1.988c-3.046,0-5.556-2.399-5.556-5.578c0-3.179,2.553-5.578,5.711-5.578
		c3.154,0,5.707,2.377,5.707,5.556v4.087c0,3.461-2.272,5.84-5.947,5.84C19.377,20.871,18.229,20.631,17.256,20.135"/>
	<path fill="#5F5D5B" d="M38.622,10.966c0-2.139-1.62-3.761-3.763-3.761c-2.141,0-3.761,1.622-3.761,3.761
		c0,2.142,1.62,3.761,3.761,3.761C37.001,14.727,38.622,13.109,38.622,10.966 M29.152,10.966c0-3.179,2.528-5.578,5.707-5.578
		c3.157,0,5.707,2.399,5.707,5.578c0,3.179-2.55,5.578-5.707,5.578C31.68,16.544,29.152,14.145,29.152,10.966"/>
	<path fill="#5F5D5B" d="M52.722,10.966c0-2.139-1.622-3.761-3.761-3.761c-2.142,0-3.765,1.622-3.765,3.761
		c0,2.142,1.622,3.761,3.765,3.761C51.1,14.727,52.722,13.109,52.722,10.966 M43.251,10.966c0-3.179,2.51-5.578,5.556-5.578
		c1.839,0,3.094,0.886,3.741,1.988h0.131V1.973C52.679,1.411,53.066,1,53.674,1c0.626,0,0.995,0.411,0.995,0.973v9.015
		c0,3.179-2.553,5.556-5.707,5.556C45.804,16.544,43.251,14.145,43.251,10.966"/>
	<path fill="#5F5D5B" d="M66.82,10.966c0-2.139-1.62-3.761-3.761-3.761c-2.141,0-3.761,1.622-3.761,3.761
		c0,2.142,1.62,3.761,3.761,3.761C65.2,14.727,66.82,13.109,66.82,10.966 M57.352,10.966c0-3.179,2.55-5.578,5.707-5.578
		c3.157,0,5.707,2.377,5.707,5.556v4.76c0,0.562-0.387,0.973-0.995,0.973c-0.626,0-0.993-0.411-0.993-0.973v-1.148h-0.129
		c-0.629,1.102-1.902,1.988-3.741,1.988C59.858,16.544,57.352,14.145,57.352,10.966"/>
</g>
</svg>
