<svg id="Layer_1" data-name="Layer 1" xmlns="http://www.w3.org/2000/svg" xmlns:xlink="http://www.w3.org/1999/xlink" viewBox="0 0 1800 1500"><defs><style>.cls-1{fill:url(#linear-gradient);}.cls-2{fill:#07535a;}</style><linearGradient id="linear-gradient" x1="1223.01" y1="172.61" x2="576.99" y2="818.63" gradientUnits="userSpaceOnUse"><stop offset="0" stop-color="#ffed92"/><stop offset="0.5" stop-color="#cdbf70"/><stop offset="1" stop-color="#ad6b00"/></linearGradient></defs><title>Tropique Logo - Vertical Color 2</title><path class="cls-1" d="M1356.76,488.62c0-2.65-.11-5.28-.22-7.9-.08-2.87-.18-5.71-.32-8.58q-.2-3.4-.43-6.83c-.08-1.55-.18-3.11-.32-4.66-.13-2.06-.32-4.1-.51-6.16-12.4-1.4-24.94-2.28-37.53-2.68a1.63,1.63,0,0,0-.38,0c-4.79-.13-9.59-.21-14.41-.21-1,0-2,0-3.06,0-122.41.78-237.4,48.85-324.08,135.49q-9.88,9.88-19.13,20.28c-2.92,3.3-5.81,6.65-8.63,10-.1.13-.21.24-.32.37q-9.36,11.22-18,22.91a459.1,459.1,0,0,0-26.22,39.76c-1.51,2.57-3,5.14-4.45,7.74A237.39,237.39,0,0,1,906,515c1.85-4,3.78-7.93,5.76-11.84,1-2,2-3.94,3-5.9.08-.18.19-.37.29-.56.94-1.77,1.88-3.54,2.84-5.3.14-.3.3-.57.46-.86q5-9.24,10.56-18.25,10.37-17,22.39-33.19c3-4.07,6.11-8.12,9.3-12.09.46-.59.94-1.15,1.39-1.74,5.26-6.53,10.75-12.94,16.4-19.21,5-5.52,10.16-10.93,15.43-16.21,70-69.93,159.29-113.36,255.93-125.31a416.93,416.93,0,0,1,60.81,145.65c.35,1.69.7,3.4,1,5.12s.67,3.53,1,5.3.65,3.67,1,5.52.62,3.8.91,5.71c.27,1.63.51,3.29.72,4.93.22,1.34.38,2.7.57,4,0,.08,0,.16,0,.22q19.26.52,38.07,2.57c-.24-2.2-.5-4.4-.77-6.57-.48-3.64-1-7.28-1.56-10.9-.26-1.77-.56-3.56-.83-5.33a1.61,1.61,0,0,1-.08-.48c-.93-5.58-2-11.15-3.1-16.67-.49-2.41-1-4.82-1.53-7.21q-1.12-5-2.33-10c-.49-1.88-1-3.78-1.45-5.66q-.81-3.13-1.69-6.27c-.59-2.09-1.18-4.18-1.77-6.24s-1.26-4.31-1.93-6.43c-.4-1.34-.83-2.68-1.25-4-.67-2.11-1.37-4.26-2.07-6.35s-1.47-4.44-2.27-6.67c-.49-1.45-1-2.87-1.51-4.29-.4-1.12-.83-2.22-1.23-3.34-.83-2.28-1.69-4.53-2.57-6.78s-1.66-4.21-2.52-6.33-1.71-4.18-2.6-6.27a441.06,441.06,0,0,0-28.56-56.5q-8-13.3-16.74-26c-2.41-3.46-4.85-6.89-7.34-10.26,0,0,0-.06-.06-.08a459.17,459.17,0,0,0-148-129.81q-14.94-8.25-30.59-15.38l-.16.08A454.76,454.76,0,0,0,1049,103.61,468.56,468.56,0,0,0,903.22,256.89q-3.13,5.31-6.11,10.69-3-5.38-6.11-10.69A469.53,469.53,0,0,0,747.36,105a456,456,0,0,0-39.78-23.68,1,1,0,0,0-.14-.08q-15.32,7.07-30,15.3a457.62,457.62,0,0,0-91.28,67.11q-12.78,12.06-24.57,25a458.42,458.42,0,0,0-30,36.71s-.05.08-.08.1a1.21,1.21,0,0,1,.27,0q21.71,1.82,42.82,5.58l0,0,.19,0,0,0a423.18,423.18,0,0,1,68.3-66.74q9.88-7.67,20.25-14.76a417.37,417.37,0,0,1,54.18-31.51,441.32,441.32,0,0,1,83.27,65.43c3,3,5.89,6,8.73,9a439.1,439.1,0,0,1,65.29,89.06c.35.62.7,1.21,1,1.82l1,1.93c2,3.59,3.88,7.24,5.68,10.91.69,1.39,1.39,2.78,2.06,4.18a237.29,237.29,0,0,1,11.2,171.41q-2.37-4.26-4.85-8.43a458.63,458.63,0,0,0-42.63-60.77c-2.86-3.48-5.81-6.91-8.81-10.32q-10-11.4-20.85-22.26C749.43,300.8,662,256.2,567.24,240.71q-21.15-3.5-42.74-5c-.08,0-.13,0-.21,0q-8.76,12.57-16.64,25.8a435.42,435.42,0,0,0-24,46.08l-2.25,5.06c-.83,1.93-1.69,3.89-2.49,5.84s-1.64,3.92-2.44,5.87c-.86,2.12-1.69,4.21-2.52,6.33s-1.74,4.5-2.57,6.77c-.56,1.56-1.15,3.17-1.71,4.75-.43,1.17-.83,2.35-1.26,3.53-.7,2-1.37,4-2,6v0q-1,3.17-2.06,6.37c-.43,1.29-.83,2.6-1.24,3.92-.64,2.14-1.28,4.28-1.9,6.45s-1.18,4.13-1.77,6.22-1.15,4.18-1.68,6.27c-.51,1.82-1,3.64-1.4,5.49-.21.86-.43,1.72-.64,2.57-.7,2.87-1.34,5.71-2,8.6-.72,3.25-1.39,6.51-2,9.78-.43,2.23-.86,4.45-1.26,6.67s-.75,4.21-1.1,6.33q-1.44,8.47-2.49,17c-.22,1.82-.46,3.64-.67,5.46,12.54-1.18,25.24-1.9,38-2.09a.45.45,0,0,1,0-.18c0-.3.08-.59.11-.89s.08-.64.13-1c.08-.59.16-1.21.24-1.83.27-2,.57-3.91.86-5.86.64-4.1,1.34-8.2,2.09-12.27.32-1.75.67-3.49,1-5.23s.67-3.37,1-5c.46-2.17.94-4.34,1.42-6.48a416.87,416.87,0,0,1,58.63-137c94.73,12.78,182.24,56,251,124.69a447.48,447.48,0,0,1,31.83,35.42c.35.43.67.83,1,1.26,3.19,4,6.29,8,9.3,12q12.26,16.4,22.8,33.73,5.53,9,10.55,18.25c.08.13.14.27.22.4,2.11,3.89,4.18,7.8,6.16,11.74.19.34.35.69.51,1,2.44,4.82,4.74,9.67,7,14.58-.51,1.28-1,2.6-1.5,3.91A250.68,250.68,0,0,0,876.9,658q-5.86-8.81-12.19-17.36-8.55-11.65-18-22.86c-.1-.13-.21-.24-.32-.37-2.81-3.35-5.68-6.7-8.63-10q-5.29-6-10.85-11.81c-2.73-2.87-5.49-5.68-8.28-8.47L817.56,586c-87.24-86.65-202.95-134.39-326-134.39-2.87,0-5.74,0-8.61.08q-19.08.32-37.88,2.22h0c0,.29-.05.56-.05.86-.35,3.86-.64,7.71-.88,11.6-.14,1.93-.25,3.86-.35,5.81-.06,1-.08,2-.11,3.06v0c-.11,1.8-.16,3.59-.21,5.42s-.14,3.85-.16,5.78c0,.78-.06,1.56-.06,2.33,0,2.28-.05,4.59-.05,6.86,0,3.94.05,7.88.16,11.79l.08,2.65v0c.08,3,.21,5.95.35,8.9v.21c.1,1.9.21,3.8.35,5.71s.24,3.61.37,5.44c.05.8.11,1.63.19,2.43.24,3,.51,6,.8,8.93.24,2.25.48,4.52.73,6.77q1,8.4,2.25,16.72c.29,1.85.59,3.7.88,5.55A452.62,452.62,0,0,0,472.9,658a.33.33,0,0,1,.05.16.15.15,0,0,1,.11,0q4.31-.15,8.6-.24c3.3-.08,6.59-.11,9.92-.11,2.81,0,5.62,0,8.41.09,4.53.08,9.05.21,13.56.42a.07.07,0,0,1,0-.05q-2-4.78-3.91-9.65-2.66-6.66-5-13.42A410.17,410.17,0,0,1,488,574c-1.26-6.57-2.36-13.16-3.3-19.83-.21-1.63-.43-3.24-.64-4.87-.05-.35-.08-.7-.13-1-.43-3.27-.81-6.54-1.13-9.83a3.92,3.92,0,0,1,0-.59c-.35-3.32-.65-6.67-.89-10a3.39,3.39,0,0,1,0-.46q-1.17-15.75-1.18-31.75c0-2.6,0-5.17.08-7.77.05-3.19.11-6.37.24-9.54h.05c3-.08,6-.1,9-.1C605,478.2,713.12,522,795.48,601.66c1.77,1.74,3.54,3.45,5.31,5.22,1.47,1.48,2.94,3,4.39,4.48,1.8,1.82,3.59,3.69,5.33,5.57a0,0,0,0,0,0,0q3.06,3.25,6,6.53c1.58,1.75,3.11,3.49,4.63,5.23q1.77,2,3.46,4c1.07,1.2,2.09,2.43,3.11,3.67,1.23,1.44,2.44,2.89,3.61,4.36.38.46.73.89,1.08,1.34q4.89,6,9.51,12.22,12.57,16.68,23.36,34.35,5.22,8.52,10,17.25c.32.54.62,1.1.91,1.64l.22.37c.59,1.08,1.17,2.17,1.71,3.25s1.15,2.11,1.69,3.18c.7,1.32,1.37,2.6,2,3.94a237.25,237.25,0,0,1,11.89,183.88q-1.39-2.41-2.81-4.82c-5.68-9.7-11.76-19.24-18.19-28.54q-10.12-14.67-21.49-28.64c-1.5-1.85-3-3.67-4.53-5.49-2.92-3.51-5.89-7-9-10.37-1.66-1.88-3.34-3.75-5.06-5.6-2.38-2.65-4.85-5.25-7.31-7.82-2.23-2.33-4.48-4.61-6.76-6.89-81-81-186.82-128.28-300.31-134.71-8.9-.54-17.82-.78-26.79-.78h-1.45q-6.44,0-12.86.22h-.11c1.42,3.45,2.87,6.85,4.37,10.26,2.38,5.46,4.87,10.85,7.47,16.21a458.71,458.71,0,0,0,185.89,198c7.42,4.2,15,8.22,22.61,12,4,2,8,3.88,12.06,5.73,2.3,1.07,4.66,2.15,7,3.16a451.11,451.11,0,0,0,108.32,32.18c1.24.22,2.44.43,3.67.62.65.11,1.26.19,1.91.27,1.93.29,3.83.56,5.76.83,1.69.24,3.37.48,5.06.69s3.22.41,4.85.59c1.42.19,2.84.35,4.26.49q6.92.75,13.91,1.28c.16,0,.32,0,.48.06h.13l5.07.37,4.28.24.86.06c.27,0,.56,0,.83,0a3.89,3.89,0,0,1,.59,0c.46,0,.94,0,1.39,0,1.48.08,3,.13,4.45.19.94,0,1.88.08,2.84.1l3,.08c.69,0,1.39.06,2.09.06.43,0,.86,0,1.28,0,1.18,0,2.36,0,3.57.06,1.6,0,3.21,0,4.82,0,1.31,0,2.6,0,3.91,0h.56c2,0,4-.06,5.95-.11s4-.08,6-.16h0a1.38,1.38,0,0,0,.35,0c.3,0,.56,0,.86,0a5.78,5.78,0,0,0,.72,0q3.58-.12,7.13-.32l3.8-.24a1.23,1.23,0,0,0,.33,0q8.88-.56,17.68-1.47c1.69-.16,3.4-.35,5.09-.54a2.61,2.61,0,0,1,.48-.05l5.23-.65c1.87-.24,3.75-.48,5.6-.75l2.35-.32c1.16-.16,2.28-.35,3.43-.53l5.66-.89c4.6-.77,9.16-1.6,13.71-2.49.33-.08.62-.13.91-.19,2.12-.43,4.24-.85,6.35-1.31s4-.86,5.93-1.31,3.69-.86,5.54-1.32c2.09-.5,4.15-1,6.24-1.55,3.17-.83,6.33-1.66,9.49-2.54a440,440,0,0,0,57.17-20.18c2.31-1,4.61-2,6.89-3,4.13-1.85,8.2-3.75,12.24-5.73,7.85-3.8,15.54-7.82,23.13-12.06a455.9,455.9,0,0,0,59.53-39.76q13.46-10.56,26.07-22.1A458.2,458.2,0,0,0,1311,695.27q6.32-12.94,11.76-26.31h-.08q-10-.44-20-.43c-7,0-13.93.16-20.87.48-113.79,5-220.16,51-302.06,130.86-1.42,1.37-2.82,2.76-4.21,4.15-1.79,1.8-3.56,3.59-5.3,5.41-.49.49-1,1-1.42,1.48-2.5,2.57-4.93,5.17-7.34,7.82q-2.58,2.78-5.07,5.6c-3,3.4-6,6.86-9,10.37-1.52,1.82-3,3.67-4.53,5.52q-11.37,13.93-21.48,28.64-3.74,5.39-7.26,10.85a251.19,251.19,0,0,0-9.94-143.77v0c.26-.56.51-1.09.77-1.63.59-1.29,1.18-2.57,1.8-3.86,1.61-3.43,3.27-6.86,5-10.26.13-.24.24-.48.37-.72,1.85-3.73,3.78-7.4,5.76-11,.16-.27.3-.56.46-.83.29-.54.59-1.1.91-1.64q4.79-8.71,10-17.25,10.61-17.35,23-33.81c3.08-4.13,6.24-8.23,9.51-12.25.49-.61,1-1.23,1.48-1.85a445.05,445.05,0,0,1,30.59-33.89c83-83,193.34-128.68,310.72-128.68,4.79,0,9.62.08,14.38.24,0,.21,0,.4,0,.62v.5q.16,3.51.24,7v1.07c.06,2.65.08,5.33.08,8q0,13.31-.8,26.45-.84,13.55-2.55,26.9c-.61,4.77-1.31,9.51-2.06,14.25a415.2,415.2,0,0,1-27.3,94.82.07.07,0,0,1,0,.05q8-.27,16.08-.27,12.18,0,24.19.62h.11s0-.13.08-.19a448.61,448.61,0,0,0,18-59.37q3.21-13.9,5.6-28.13c.94-5.63,1.77-11.31,2.49-17,.11-.83.22-1.63.3-2.46v0c.61-4.88,1.12-9.81,1.55-14.76q.29-2.89.48-5.79c.3-3.86.54-7.74.75-11.63,0-.59.06-1.15.08-1.74.16-3.32.27-6.64.35-10,.11-3.91.16-7.82.16-11.76Q1356.81,492.11,1356.76,488.62Zm-452.53-176c2.44-5.33,5-10.63,7.61-15.86,2-3.94,4-7.85,6.14-11.73l.4-.75a444.16,444.16,0,0,1,161.13-167.56,422.17,422.17,0,0,1,145,113.57s0,.05.06.08.13,0,.21,0a.1.1,0,0,1,0-.08c14.2-2.33,28.59-4.07,43.19-5.09,2.52,3.38,4.95,6.78,7.34,10.24q-21.75,1.25-43.11,4.5c-96.8,14.71-186.07,59.67-256.62,130.21q-10.85,10.85-20.84,22.26-4.5,5.11-8.82,10.32a452.51,452.51,0,0,0-29.09,39.17,250.75,250.75,0,0,0-12.52-129.25Zm-39,600.91c-2.68-.22-5.36-.46-8-.73l-.33,0c-.93-.11-1.87-.19-2.81-.3-2-.24-4-.46-6-.72-2.65-.32-5.33-.67-8-1.07q-5.38-.76-10.72-1.69a415.34,415.34,0,0,1-79.25-21.73c-4.05-1.56-8.09-3.16-12.06-4.85a421.88,421.88,0,0,1-205.6-185.16A435.66,435.66,0,0,1,791,814.44c3.3,3.08,6.54,6.25,9.76,9.46,1.9,1.9,3.78,3.81,5.62,5.73,2.5,2.58,4.93,5.18,7.34,7.8,1.18,1.26,2.34,2.55,3.49,3.83q7.31,8.13,14.14,16.53c.38.46.73.89,1.08,1.34q4.89,6,9.51,12.22Q854.54,888,865.33,905.7c1.66,2.71,3.3,5.44,4.88,8.17C868.52,913.79,866.86,913.66,865.2,913.5Zm64.11-7.8q10.61-17.37,23-33.81c3.08-4.13,6.24-8.23,9.51-12.25.49-.61,1-1.23,1.48-1.85q6.82-8.4,14.14-16.53c1.1-1.2,2.17-2.41,3.3-3.61,2.38-2.63,4.85-5.23,7.31-7.8q2.34-2.45,4.75-4.82c.34-.38.72-.75,1.09-1.13,2.92-2.92,5.84-5.76,8.82-8.55.29-.32.62-.61.94-.91a435.69,435.69,0,0,1,264.25-117.7,421.68,421.68,0,0,1-141.38,151.6q-10.38,6.75-21.14,12.8a418.36,418.36,0,0,1-46.81,22.7c-4,1.66-8.12,3.24-12.24,4.79a415.45,415.45,0,0,1-81.43,21.28v0q-5.29.89-10.69,1.53c-2,.27-4.07.51-6.08.75-3.08.35-6.13.67-9.21.94s-6.27.56-9.44.75c-1.74.13-3.48.24-5.22.32Q926.71,909.92,929.31,905.7Z"/><path class="cls-1" d="M759.42,100.37l-.27.08c.06,0,.11.08.16.11a1.28,1.28,0,0,0,.24-.11,419.91,419.91,0,0,1,74.57-19c2.06-.32,4.15-.64,6.21-.93s4.21-.59,6.33-.86c2.68-.35,5.38-.67,8.06-.94s5.17-.53,7.74-.78c.86-.08,1.69-.13,2.52-.21,2.57-.21,5.17-.4,7.75-.56a1.63,1.63,0,0,1,.37,0c8.92-.53,17.87-.83,26.9-.83,3,0,5.92,0,8.9.08,4.26.08,8.52.24,12.72.46s8.44.48,12.65.83c.61,0,1.2.08,1.82.16,2.25.19,4.47.37,6.72.61.57.06,1.16.11,1.72.19,2.2.22,4.37.48,6.56.75,2.68.32,5.39.67,8.07,1a415.27,415.27,0,0,1,77.45,18.7,2.3,2.3,0,0,1,.54.19,1.53,1.53,0,0,1,.16-.11c-.19-.06-.37-.14-.56-.19q19.45-13.22,40.24-24.54l.11-.08a448.75,448.75,0,0,0-71.48-23.31c-3.54-.83-7.08-1.64-10.61-2.39-6.57-1.39-13.16-2.65-19.83-3.75,0,0,0,0,0,0-5.63-.93-11.28-1.77-17-2.49-3.8-.48-7.66-.91-11.49-1.31s-7.67-.72-11.53-1-7.76-.54-11.65-.75S915.7,39,911.79,39s-7.85-.16-11.79-.16c-5.89,0-11.79.11-17.63.35l-4.18.16c-6.4.29-12.75.75-19.08,1.31-1.9.16-3.83.35-5.76.54-3.83.4-7.63.83-11.44,1.31-1.9.24-3.8.51-5.7.78s-3.78.53-5.68.83l-3.81.59c-1.07.19-2.17.35-3.24.53A452.14,452.14,0,0,0,719.63,75.8l.14.08Q740.21,87.18,759.42,100.37Z"/><path class="cls-2" d="M1752.42,1366.54q-15.57,35.78-95.57,35.76-57.61,0-156.62-20.1-62.37-12.85-127.79-19.69-48.82-5.1-90-6.39-14-.43-27-.44c-3.42,0-6.67,0-9.81,0-.8,0-1.66,0-2.48,0-1.46,0-2.89,0-4.3.06a9.38,9.38,0,0,0-1.3,0,345.51,345.51,0,0,0-80.68,10.48l35.48-20.49a166.48,166.48,0,0,0,24.56-5.61q14.6-4.14,30.88-15.31T1273.1,1300q19.47-28.7,19.46-66.16,0-32.08-14.83-58.6t-43.77-40a140.45,140.45,0,0,0-60.07-13.5q-50.36,0-83.79,30.4t-33.44,80.49q0,51.55,33,82.69t85.23,31.14q8.76,0,16.3-.73l-29.67,17c-2.41,1.27-4.74,2.48-7,3.62-.33.18-.67.35-1,.51l-.19.09-.44.22a9.19,9.19,0,0,1-.92.35c-.47.13-.94.25-1.4.39l-.92.25q-8.17,2.28-16,5c-7.37,2.36-13.27,4.39-17.78,6-2.74,1-5.2,2-7.36,3a415.55,415.55,0,0,1,110-14.58q13,0,25.71.77a355,355,0,0,1,46.79,5.42c1,.19,2,.36,3,.54l2.84.52c1.57.31,3.13.61,4.7.94,1.74.35,3.48.71,5.24,1.09.24,0,.49.09.72.15,1.18.24,2.36.51,3.55.77l2.23.51q44.26,10,97.39,30c4.23,1.59,8.42,3.16,12.49,4.63.7.28,1.35.53,2,.74a0,0,0,0,0,0,0q49.8,18.19,82.38,25.94,37.3,8.82,82.73,8.83,69.15,0,112.54-22.7t51.51-59.25ZM1176.81,1345q-41.83,0-62.75-26.27-10-12.66-15.32-35.27a231.71,231.71,0,0,1,0-99.1q5.34-22.74,15.32-35.64,20.91-26.25,60.06-26.25,39.89,0,60.8,27,10.23,13.14,15.58,35.88a212.94,212.94,0,0,1,5.34,48.76,210.18,210.18,0,0,1-5.47,49.37q-5.47,22.62-15.68,35.27Q1213.29,1345,1176.81,1345Z"/><path class="cls-2" d="M45.55,1170l1.22-45.36h198l1,45.36h-.49q-3.64-21.45-10-31t-13.78-11.7q-7.44-2.2-25.24-2.2H161.38v160.21q0,25.61,1.22,33.65t6.46,11.83q5.25,3.78,19.88,3.77h10.48v.49H91.15v-.49h11.22q13.91,0,19.26-3.53t7-11q1.59-7.44,1.59-34.75V1125.15H98q-21,0-28.28,2.07T56,1139.29q-6.34,10-9.51,30.73Z"/><path class="cls-2" d="M432.54,1335.1Q413,1321.45,384.74,1281q-10.23-14.88-21.21-28.41t-15.24-16.46q-4.28-2.92-13.05-2.93h-8.53v52.19q0,25.61,1.22,33.65t6.34,11.83q5.12,3.78,20,3.77h10.49v.49H260.63v-.49h7.07q13.89,0,19.26-3.53t6.83-11q1.45-7.44,1.46-34.75V1170q0-25.85-1.46-33.41t-6.46-10.36q-5-2.8-21.34-2.8h-3.66v-1l80.47-.73q31,0,50.48,5.73t31.45,18.9a45.18,45.18,0,0,1,11.95,31.45q0,21.23-15.6,36.34T375,1232.93q13.65,6.58,43.89,47.31,24.63,33.16,38.77,43.4t33.17,11v.49Zm-81-103.39a94,94,0,0,0,22.19-3.66,38.64,38.64,0,0,0,15.36-8.41,36.8,36.8,0,0,0,9.15-14.51q3.29-9,3.29-24.87a109.84,109.84,0,0,0-2.93-25q-2.92-12.57-8.53-18.9-11.48-13.9-49.75-13.9-5.85,0-13.65.73v109.49Z"/><path class="cls-2" d="M538.85,1148.32q33.66-30.48,83.89-30.48,51,0,85,30.23t34,82.18q0,50.48-32.55,81.69t-86,31.21q-51.69,0-84.85-31.21t-33.17-82.67Q505.2,1178.79,538.85,1148.32Zm8.54,131.92q5.36,22.92,15.36,35.6,21,26.33,62.91,26.33,36.58,0,58-26.33,10.24-12.67,15.73-35.48a227.11,227.11,0,0,0,.12-98.64q-5.37-22.67-15.61-35.84-21-26.82-61-26.82-39.26,0-60.23,26.33-10,12.69-15.36,35.48a215.15,215.15,0,0,0-5.37,49.38A219.07,219.07,0,0,0,547.39,1280.24Z"/><path class="cls-2" d="M821.47,1285.36q0,25.85,1,33.65,1.21,8,6.58,11.83t20,3.77h7.08v.49H756.61v-.49h5.85q13.9,0,19.26-3.53t6.83-11q1.47-7.44,1.46-34.75V1170q0-25.85-1.46-33.41t-6.46-10.36q-5-2.8-21.58-2.8h-3.9v-1l78.27.24q33.66,0,51.82,5.24a60.55,60.55,0,0,1,29.75,18.66Q928,1160,928,1180.5q0,17.8-7.92,31.46a51.1,51.1,0,0,1-22.68,20.73q-14.76,7.07-52.31,7.07H821.47Zm15.36-46.82q18.78,0,30.36-3.78T886.33,1219q3.66-5.61,5.73-16.21a106.44,106.44,0,0,0,2.08-20.36,108.14,108.14,0,0,0-3.42-27.31Q887.3,1142,881,1135.88q-13.41-12.44-42.92-12.43-11,0-16.58.48v114.61Z"/><path class="cls-2" d="M942.41,1124.66h99.25v.49H1037q-15.85,0-20.85,2.68t-6.71,9.88q-1.71,7.2-1.7,41.09v106.56q0,25.85,1.22,33.65,1.21,8,6.46,11.83t19.87,3.77h6.34v.49H942.41v-.49h6.35q14.13,0,19.5-3.53t6.71-11q1.34-7.44,1.34-34.75V1178.8q0-32.92-1.46-40.36t-6.34-10.36q-4.89-2.92-21.46-2.93h-4.64Z"/><path class="cls-2" d="M1555.68,1123.45v.48q-18.53,1.23-25.36,6.59-7.07,5.36-8.65,12.31t-1.59,26.7V1242q0,42.19-1.46,51a66.54,66.54,0,0,1-3,12.68,41.45,41.45,0,0,1-6.46,10.73q-10.24,12.93-29,20.72t-43.4,7.81q-29,0-49.14-9.88t-28.65-25.48q-8.54-15.6-8.53-41.94l.24-29.27v-67.54q0-26.09-1.59-33.53t-6.46-10.36q-4.87-2.92-21.46-2.93h-4.87v-.48h99.24v.48h-4.39q-16.1,0-21,2.69t-6.58,9.87q-1.71,7.2-1.71,34.26v68.52q0,51.21,3.29,66.08t18.41,26.09q14.38,10.49,40.24,10.49,15.84,0,35.11-6.58a63.1,63.1,0,0,0,17.07-8.9,49.17,49.17,0,0,0,20.48-32.8q1.71-11.7,1.71-52.92v-74.12q0-18.3-2.07-25.73a19.21,19.21,0,0,0-8.9-11.58q-6.83-4.15-24.14-5.37v-.48Z"/><path class="cls-2" d="M1745.64,1274.38,1741,1335.1H1567.88v-.49h4.38q16.34,0,21.1-4.26a18.76,18.76,0,0,0,6-11q1.22-6.69,1.22-34V1178.8q0-31.69-1.34-39.51t-6.22-11q-4.87-3.16-20.73-3.17v-.49h148.51l5.12,54.14h-.73a142.89,142.89,0,0,0-7.08-22.44q-4.63-11.46-8.53-16.58-7.56-9.51-17.8-12T1662,1125.4h-30.24v97.78h23.17q15.84,0,22.19-2.68t8.29-8.17q2-5.49,1.95-21.58h.73v74.37h-.73q0-25.11-3-31.21a14.7,14.7,0,0,0-8.9-7.93q-5.85-1.83-19.75-1.83h-23.9v58.28q0,38.53,5,45.36t26.7,6.82h16.34q17.07,0,28.16-4.38t21.1-18q10-13.65,15.85-37.8Z"/><path class="cls-2" d="M280.07,1448.69v-41H264.2v-4.12h36.5v4.12H284.84v41Z"/><path class="cls-2" d="M306.44,1448.69v-33.86h4.39v9.22l-.45-1.61a11.12,11.12,0,0,1,4.77-5.9,15.83,15.83,0,0,1,8.32-2V1419a4.41,4.41,0,0,1-.52,0l-.51,0q-5.35,0-8.39,3.25t-3,9.26v17.28Z"/><path class="cls-2" d="M345.26,1449a17.42,17.42,0,0,1-8.83-2.22,16.48,16.48,0,0,1-6.13-6.16,18.87,18.87,0,0,1,0-17.87,16.35,16.35,0,0,1,6.13-6.06,18.95,18.95,0,0,1,17.76,0,16.14,16.14,0,0,1,6.13,6.06,17.51,17.51,0,0,1,2.23,8.93,17.75,17.75,0,0,1-2.23,8.93,16.12,16.12,0,0,1-6.16,6.13A17.79,17.79,0,0,1,345.26,1449Zm0-4.06a12.77,12.77,0,0,0,6.52-1.65,11.78,11.78,0,0,0,4.48-4.64,15.55,15.55,0,0,0,0-13.9,12,12,0,0,0-4.48-4.61,13.5,13.5,0,0,0-12.9,0,12.11,12.11,0,0,0-4.51,4.61,15.22,15.22,0,0,0,0,13.9,12,12,0,0,0,4.48,4.64A12.41,12.41,0,0,0,345.26,1445Z"/><path class="cls-2" d="M371.9,1461.2v-46.37h4.38V1425l-.45,6.77.65,6.84v22.57ZM389.37,1449a15.7,15.7,0,0,1-7.93-2,14.65,14.65,0,0,1-5.64-5.87,19.3,19.3,0,0,1-2.1-9.38,19.5,19.5,0,0,1,2.07-9.38,14.18,14.18,0,0,1,5.61-5.84,16,16,0,0,1,8-2,17.39,17.39,0,0,1,8.68,2.16,15.68,15.68,0,0,1,6,6.06,19.65,19.65,0,0,1,0,18,16,16,0,0,1-6,6.06A17.2,17.2,0,0,1,389.37,1449Zm-.32-4.06a12.58,12.58,0,0,0,6.45-1.65,12,12,0,0,0,4.51-4.64,13.94,13.94,0,0,0,1.68-6.93,13.78,13.78,0,0,0-1.68-6.9,12.26,12.26,0,0,0-4.51-4.64,12.41,12.41,0,0,0-6.45-1.68,12.57,12.57,0,0,0-6.48,1.68,11.91,11.91,0,0,0-4.51,4.64,14,14,0,0,0-1.65,6.9,14.15,14.15,0,0,0,1.65,6.93,11.65,11.65,0,0,0,4.51,4.64A12.75,12.75,0,0,0,389.05,1445Z"/><path class="cls-2" d="M417.94,1407.35a3.23,3.23,0,0,1-2.39-1,3.16,3.16,0,0,1-1-2.32,3.09,3.09,0,0,1,1-2.29,3.32,3.32,0,0,1,2.39-.93,3.38,3.38,0,0,1,2.39.9,3,3,0,0,1,1,2.26,3.3,3.3,0,0,1-.93,2.38A3.19,3.19,0,0,1,417.94,1407.35Zm-2.32,41.34v-33.86h4.58v33.86Z"/><path class="cls-2" d="M447,1449a18.07,18.07,0,0,1-9-2.22,16.31,16.31,0,0,1-6.23-6.13,18.93,18.93,0,0,1,0-17.9,16.13,16.13,0,0,1,6.23-6.06,18.27,18.27,0,0,1,9-2.19,17.75,17.75,0,0,1,7.81,1.68,12.62,12.62,0,0,1,5.48,5l-3.42,2.32a10.77,10.77,0,0,0-4.32-3.81,13.63,13.63,0,0,0-12.12.42,12,12,0,0,0-4.58,4.61,15.28,15.28,0,0,0,0,13.93,11.87,11.87,0,0,0,4.58,4.61,13.55,13.55,0,0,0,12.12.42,10.81,10.81,0,0,0,4.32-3.74l3.42,2.32a12.92,12.92,0,0,1-5.48,5A17.49,17.49,0,0,1,447,1449Z"/><path class="cls-2" d="M478.82,1449a16,16,0,0,1-6.61-1.26,9.79,9.79,0,0,1-4.29-3.48,9,9,0,0,1-1.49-5.13,9.35,9.35,0,0,1,1.26-4.8,8.87,8.87,0,0,1,4.13-3.48,18.69,18.69,0,0,1,7.71-1.32H491.2V1433H479.65q-4.89,0-6.8,1.74A5.64,5.64,0,0,0,471,1439a5.56,5.56,0,0,0,2.26,4.64,10.13,10.13,0,0,0,6.32,1.74,12.25,12.25,0,0,0,6.67-1.77,10.2,10.2,0,0,0,4.09-5.13l1,3.16a10.73,10.73,0,0,1-4.49,5.35A14.77,14.77,0,0,1,478.82,1449Zm11.67-.32v-7.48l-.2-1.23v-12.51a8.78,8.78,0,0,0-2.41-6.64c-1.62-1.55-4-2.32-7.19-2.32a17.92,17.92,0,0,0-6.26,1.09,16,16,0,0,0-5,2.91l-2.06-3.42a18.39,18.39,0,0,1,6.19-3.39,24.2,24.2,0,0,1,7.61-1.19q6.57,0,10.15,3.26t3.58,9.9v21Z"/><path class="cls-2" d="M507.32,1448.69v-47.85h4.58v47.85Z"/><path class="cls-2" d="M542.53,1448.69v-45.14H562q7.54,0,11.71,3a10,10,0,0,1,4.16,8.57,10.26,10.26,0,0,1-6.35,10,15.8,15.8,0,0,1-6.42,1.29l1.1-1.55a19,19,0,0,1,7.44,1.32,10.73,10.73,0,0,1,4.87,3.94,11.43,11.43,0,0,1,1.74,6.48,10.45,10.45,0,0,1-4.22,8.9q-4.23,3.17-12.74,3.16Zm4.77-3.94h15.93c3.95,0,7-.67,9.09-2s3.16-3.51,3.16-6.48-1.05-5.06-3.16-6.41-5.14-2-9.09-2H546.78v-3.93h14.9q5.42,0,8.42-2.06a7.79,7.79,0,0,0,0-12.29q-3-2-8.42-2H547.3Z"/><path class="cls-2" d="M604,1449a17.43,17.43,0,0,1-8.84-2.22,16.48,16.48,0,0,1-6.13-6.16,18.87,18.87,0,0,1,0-17.87,16.35,16.35,0,0,1,6.13-6.06,19,19,0,0,1,17.77,0,16.19,16.19,0,0,1,6.12,6.06,17.41,17.41,0,0,1,2.23,8.93,17.64,17.64,0,0,1-2.23,8.93,16.05,16.05,0,0,1-6.16,6.13A17.75,17.75,0,0,1,604,1449Zm0-4.06a12.7,12.7,0,0,0,6.51-1.65,11.78,11.78,0,0,0,4.48-4.64,15.55,15.55,0,0,0,0-13.9,12,12,0,0,0-4.48-4.61,13.5,13.5,0,0,0-12.9,0,12.11,12.11,0,0,0-4.51,4.61,15.22,15.22,0,0,0,0,13.9,12,12,0,0,0,4.48,4.64A12.42,12.42,0,0,0,604,1445Z"/><path class="cls-2" d="M644.61,1449a16.72,16.72,0,0,1-7.54-1.61,11.45,11.45,0,0,1-5-4.84,16.57,16.57,0,0,1-1.77-8.06v-19.67h4.57V1434c0,3.61.9,6.33,2.68,8.15s4.29,2.74,7.51,2.74a12.44,12.44,0,0,0,6.16-1.45,9.56,9.56,0,0,0,4-4.22,14.76,14.76,0,0,0,1.39-6.64v-17.74h4.58v33.86H656.8v-9.29l.71,1.68a12.57,12.57,0,0,1-5,5.84A14.77,14.77,0,0,1,644.61,1449Z"/><path class="cls-2" d="M668.67,1418.64v-3.81h21v3.81Zm16,30.37q-4.77,0-7.35-2.58t-2.58-7.29v-31.79h4.58v31.54a6.46,6.46,0,0,0,1.51,4.58,5.7,5.7,0,0,0,4.35,1.61,7.38,7.38,0,0,0,5-1.74l1.62,3.29a8.63,8.63,0,0,1-3.26,1.8A13.21,13.21,0,0,1,684.66,1449Z"/><path class="cls-2" d="M702.46,1407.35a3.23,3.23,0,0,1-2.39-1,3.16,3.16,0,0,1-1-2.32,3.1,3.1,0,0,1,1-2.29,3.32,3.32,0,0,1,2.39-.93,3.36,3.36,0,0,1,2.38.9,3,3,0,0,1,1,2.26,3.27,3.27,0,0,1-.94,2.38A3.17,3.17,0,0,1,702.46,1407.35Zm-2.32,41.34v-33.86h4.57v33.86Z"/><path class="cls-2" d="M731,1449a17.16,17.16,0,0,1-8.67-2.19,15.81,15.81,0,0,1-6-6.06,19.57,19.57,0,0,1,0-18,15.54,15.54,0,0,1,6-6.06,17.35,17.35,0,0,1,8.67-2.16,16,16,0,0,1,8,2,14.37,14.37,0,0,1,5.58,5.84,19.62,19.62,0,0,1,2.06,9.38,19.3,19.3,0,0,1-2.1,9.38,14.64,14.64,0,0,1-5.61,5.87A15.63,15.63,0,0,1,731,1449Zm.32-4.06a12.75,12.75,0,0,0,6.48-1.65,11.67,11.67,0,0,0,4.52-4.64,14.25,14.25,0,0,0,1.64-6.93,14.08,14.08,0,0,0-1.64-6.9,11.93,11.93,0,0,0-4.52-4.64,12.57,12.57,0,0,0-6.48-1.68,12.23,12.23,0,0,0-10.9,6.32,13.88,13.88,0,0,0-1.67,6.9,14,14,0,0,0,1.67,6.93,12,12,0,0,0,4.52,4.64A12.46,12.46,0,0,0,731.28,1445Zm12.58,16.25v-22.57l.64-6.84-.45-6.77v-10.19h4.39v46.37Z"/><path class="cls-2" d="M775.2,1449a16.76,16.76,0,0,1-7.55-1.61,11.43,11.43,0,0,1-5-4.84,16.46,16.46,0,0,1-1.78-8.06v-19.67h4.58V1434q0,5.41,2.68,8.15c1.78,1.83,4.29,2.74,7.51,2.74a12.47,12.47,0,0,0,6.16-1.45,9.61,9.61,0,0,0,4-4.22,14.76,14.76,0,0,0,1.38-6.64v-17.74h4.58v33.86h-4.38v-9.29l.71,1.68a12.63,12.63,0,0,1-5,5.84A14.77,14.77,0,0,1,775.2,1449Z"/><path class="cls-2" d="M818.92,1449a18.83,18.83,0,0,1-9.29-2.22,16.22,16.22,0,0,1-6.25-6.13,17.46,17.46,0,0,1-2.26-8.93,18,18,0,0,1,2.16-8.9,15.94,15.94,0,0,1,5.94-6.09,16.3,16.3,0,0,1,8.48-2.23,16.56,16.56,0,0,1,8.48,2.16,15.39,15.39,0,0,1,5.83,6.06,18.48,18.48,0,0,1,2.13,9c0,.21,0,.44,0,.68s0,.48,0,.74H804.6v-3.42h27l-1.8,1.35a13.35,13.35,0,0,0-1.58-6.54,11.63,11.63,0,0,0-4.29-4.48,12,12,0,0,0-6.25-1.62,12.17,12.17,0,0,0-6.26,1.62,11.17,11.17,0,0,0-4.32,4.51,13.91,13.91,0,0,0-1.55,6.64v.71a13.3,13.3,0,0,0,1.71,6.81,11.93,11.93,0,0,0,4.77,4.57,14.53,14.53,0,0,0,7,1.65,15.09,15.09,0,0,0,5.77-1.1,12.05,12.05,0,0,0,4.61-3.35l2.58,3a14.44,14.44,0,0,1-5.64,4.12A19,19,0,0,1,818.92,1449Z"/><path class="cls-2" d="M866.12,1448.69h-4.77v-45.14h4.77Zm28.7-20.83H865.61v-4.19h29.21Zm-.45-24.31h4.71v45.14h-4.71Z"/><path class="cls-2" d="M926.61,1449a17.42,17.42,0,0,1-8.83-2.22,16.48,16.48,0,0,1-6.13-6.16,18.79,18.79,0,0,1,0-17.87,16.35,16.35,0,0,1,6.13-6.06,18.95,18.95,0,0,1,17.76,0,16.21,16.21,0,0,1,6.13,6.06,17.51,17.51,0,0,1,2.22,8.93,17.74,17.74,0,0,1-2.22,8.93,16.12,16.12,0,0,1-6.16,6.13A17.79,17.79,0,0,1,926.61,1449Zm0-4.06a12.77,12.77,0,0,0,6.52-1.65,11.78,11.78,0,0,0,4.48-4.64,15.55,15.55,0,0,0,0-13.9,12,12,0,0,0-4.48-4.61,13.5,13.5,0,0,0-12.9,0,12.21,12.21,0,0,0-4.52,4.61,15.3,15.3,0,0,0,0,13.9,12.08,12.08,0,0,0,4.49,4.64A12.39,12.39,0,0,0,926.61,1445Z"/><path class="cls-2" d="M948,1418.64v-3.81h21v3.81ZM964,1449q-4.77,0-7.35-2.58t-2.58-7.29v-31.79h4.58v31.54a6.46,6.46,0,0,0,1.51,4.58,5.71,5.71,0,0,0,4.36,1.61,7.4,7.4,0,0,0,5-1.74l1.61,3.29a8.56,8.56,0,0,1-3.26,1.8A13.21,13.21,0,0,1,964,1449Z"/><path class="cls-2" d="M992.58,1449a18.79,18.79,0,0,1-9.28-2.22,16.18,16.18,0,0,1-6.26-6.13,17.56,17.56,0,0,1-2.26-8.93,18,18,0,0,1,2.16-8.9,15.94,15.94,0,0,1,5.94-6.09,16.3,16.3,0,0,1,8.48-2.23,16.56,16.56,0,0,1,8.48,2.16,15.39,15.39,0,0,1,5.83,6.06,18.48,18.48,0,0,1,2.13,9c0,.21,0,.44,0,.68s0,.48,0,.74H978.27v-3.42h27l-1.81,1.35a13.35,13.35,0,0,0-1.58-6.54,11.56,11.56,0,0,0-4.29-4.48,11.93,11.93,0,0,0-6.25-1.62,12.19,12.19,0,0,0-6.26,1.62,11.17,11.17,0,0,0-4.32,4.51,13.91,13.91,0,0,0-1.55,6.64v.71a13.3,13.3,0,0,0,1.71,6.81,11.93,11.93,0,0,0,4.77,4.57,14.56,14.56,0,0,0,7,1.65,15.09,15.09,0,0,0,5.77-1.1,12,12,0,0,0,4.61-3.35l2.58,3a14.44,14.44,0,0,1-5.64,4.12A19,19,0,0,1,992.58,1449Z"/><path class="cls-2" d="M1017.15,1448.69v-47.85h4.58v47.85Z"/></svg>