<?xml version="1.0" encoding="UTF-8"?>
<svg id="Layer_2" data-name="Layer 2" xmlns="http://www.w3.org/2000/svg" viewBox="0 0 2750 620">
  <defs>
    <style>
      .cls-1 {
        fill: #fff;
        stroke-width: 0px;
      }
    </style>
  </defs>
  <g>
    <path class="cls-1" d="M2712.49,431.35c-16.27,37.39-66.22,56.06-149.82,56.06-60.22,0-142.13-10.5-245.53-31.51-65.19-13.43-131.97-23.73-200.34-30.87-51.02-5.33-98.11-8.65-141.04-10.02-14.6-.46-28.69-.69-42.35-.69-5.35,0-10.46,0-15.38.05-1.26-.05-2.61-.05-3.89-.05-2.29,0-4.53,0-6.75.09-.71-.05-1.42-.05-2.04,0-44.82.64-87.52,6.43-126.48,16.43l55.62-32.12c13.48-2.06,26.31-4.97,38.51-8.79,15.26-4.32,31.39-12.31,48.41-24,17.02-11.69,30.25-24.67,39.65-38.9,20.34-30,30.5-64.57,30.5-103.72,0-33.54-7.76-64.16-23.25-91.87-15.51-27.71-38.39-48.62-68.62-62.72-30.27-14.12-61.64-21.16-94.18-21.16-52.63,0-96.4,15.88-131.36,47.66-34.94,31.76-52.42,73.84-52.42,126.19s17.23,97.1,51.66,129.64c34.44,32.51,78.98,48.8,133.62,48.8,9.15,0,17.66-.39,25.56-1.14l-46.52,26.68c-3.78,1.99-7.44,3.89-11.01,5.67-.53.27-1.05.55-1.58.8-.09.05-.21.09-.3.14-.23.11-.46.23-.69.34-.46.21-.96.39-1.44.55-.73.21-1.46.39-2.2.62-.48.11-.96.25-1.44.39-8.53,2.38-16.89,4.99-25.05,7.78-11.55,3.71-20.8,6.89-27.87,9.5-4.3,1.6-8.15,3.18-11.53,4.76,53.77-14.78,111.86-22.86,172.5-22.86,13.57,0,27.02.41,40.32,1.21,22.79,1.01,47.27,3.82,73.36,8.49,1.58.3,3.18.57,4.76.85,1.49.27,2.97.55,4.46.82,2.45.48,4.9.96,7.37,1.46,2.72.55,5.45,1.12,8.21,1.72.37.07.75.14,1.12.23,1.85.39,3.71.8,5.56,1.21,1.17.27,2.33.53,3.5.8,46.26,10.48,97.17,26.13,152.68,46.97,6.64,2.49,13.2,4.94,19.59,7.25,1.1.43,2.1.82,3.2,1.17,0,0,0,.05.05.05,52.05,19.01,95.05,32.58,129.16,40.66,38.99,9.22,82.23,13.84,129.69,13.84,72.28,0,131.08-11.87,176.43-35.58,45.35-23.73,72.28-54.68,80.75-92.89h-3.18ZM1810.1,397.58c-43.72,0-76.51-13.73-98.36-41.18-10.43-13.22-18.44-31.64-24.02-55.28-5.61-23.64-8.4-49.56-8.4-77.79s2.79-53.82,8.4-77.57c5.58-23.77,13.59-42.4,24.02-55.87,21.85-27.43,53.24-41.16,94.15-41.16s73.47,14.09,95.32,42.31c10.69,13.73,18.81,32.49,24.41,56.24,5.58,23.77,8.37,49.26,8.37,76.44s-2.86,53.77-8.58,77.4c-5.72,23.64-13.91,42.05-24.57,55.28-22.38,27.46-52.63,41.18-90.74,41.18Z"/>
    <path class="cls-1" d="M34.33,123.27l1.91-71.1h310.41l1.53,71.1h-.76c-3.82-22.42-9.05-38.61-15.67-48.55-6.63-9.94-13.83-16.06-21.6-18.35-7.78-2.29-20.97-3.44-39.57-3.44h-54.67v251.16c0,26.76.63,44.35,1.91,52.75,1.27,8.41,4.65,14.59,10.13,18.54,5.48,3.95,15.87,5.92,31.16,5.92h16.44v.77H105.82v-.77h17.58c14.53,0,24.59-1.84,30.2-5.54,5.6-3.69,9.24-9.42,10.9-17.21,1.65-7.77,2.48-25.93,2.48-54.47V52.93h-50.46c-21.92,0-36.7,1.09-44.34,3.25-7.65,2.17-14.78,8.48-21.41,18.92-6.63,10.46-11.6,26.51-14.91,48.17h-1.53Z"/>
    <path class="cls-1" d="M641.01,382.07c-20.39-14.27-45.37-42.56-74.93-84.87-10.7-15.54-21.79-30.39-33.26-44.54-11.47-14.14-19.44-22.74-23.89-25.8-4.46-3.06-11.28-4.59-20.45-4.59h-13.38v81.81c0,26.76.63,44.35,1.91,52.75,1.27,8.41,4.59,14.59,9.94,18.54,5.35,3.95,15.8,5.92,31.35,5.92h16.44v.77h-163.23v-.77h11.09c14.53,0,24.59-1.84,30.2-5.54,5.6-3.69,9.18-9.42,10.7-17.21,1.53-7.77,2.29-25.93,2.29-54.47V123.27c0-27.01-.76-44.47-2.29-52.37-1.53-7.9-4.91-13.31-10.13-16.25-5.23-2.93-16.38-4.4-33.45-4.4h-5.73v-1.53l126.15-1.15c32.36,0,58.74,3,79.13,8.98,20.39,5.99,36.82,15.86,49.31,29.62,12.48,13.76,18.73,30.2,18.73,49.32,0,22.17-8.16,41.16-24.46,56.96-16.31,15.8-40.4,25.61-72.25,29.44,14.27,6.88,37.21,31.6,68.81,74.16,25.74,34.66,46,57.35,60.78,68.05,14.78,10.7,32.11,16.44,51.99,17.2v.77h-91.36ZM514.09,219.99c13.25-.77,24.85-2.67,34.79-5.74,9.94-3.06,17.97-7.45,24.08-13.19,6.12-5.74,10.9-13.32,14.34-22.75,3.44-9.42,5.16-22.42,5.16-38.99,0-13-1.53-26.05-4.59-39.18-3.06-13.13-7.52-23-13.38-29.63-11.98-14.53-37.98-21.79-77.98-21.79-6.12,0-13.26.38-21.41,1.15v171.64c13-.51,26-1.02,38.99-1.53Z"/>
    <path class="cls-1" d="M1250.74,304.09c0,27.02.51,44.6,1.53,52.75,1.27,8.41,4.71,14.59,10.32,18.54,5.6,3.95,16.06,5.92,31.35,5.92h11.09v.77h-155.97v-.77h9.17c14.53,0,24.59-1.84,30.2-5.54,5.6-3.69,9.18-9.42,10.7-17.21,1.53-7.77,2.29-25.93,2.29-54.47V123.27c0-27.01-.76-44.47-2.29-52.37-1.53-7.9-4.91-13.31-10.13-16.25-5.23-2.93-16.51-4.4-33.83-4.4h-6.12v-1.53l122.71.38c35.17,0,62.25,2.74,81.23,8.22,18.98,5.49,34.53,15.23,46.64,29.25,12.1,14.02,18.16,31.73,18.16,53.14,0,18.61-4.15,35.04-12.42,49.31-8.29,14.28-20.14,25.11-35.55,32.49-15.42,7.39-42.75,11.09-82,11.09h-37.08v71.48ZM1274.82,230.69c19.62,0,35.48-1.97,47.59-5.92,12.1-3.95,22.11-12.17,30.01-24.66,3.82-5.86,6.81-14.34,8.98-25.42,2.16-11.09,3.25-21.72,3.25-31.92,0-14.78-1.78-29.05-5.35-42.81-3.57-13.76-8.67-23.83-15.29-30.2-14.02-13-36.45-19.49-67.28-19.49-11.47,0-20.14.26-25.99.76v179.67h24.08Z"/>
    <path class="cls-1" d="M1440.35,52.17h155.59v.76h-7.26c-16.57,0-27.47,1.41-32.68,4.21-5.23,2.81-8.73,7.97-10.51,15.48-1.79,7.52-2.68,28.99-2.68,64.41v167.05c0,27.02.63,44.6,1.91,52.75,1.27,8.41,4.65,14.59,10.13,18.54,5.48,3.95,15.86,5.92,31.16,5.92h9.94v.77h-155.59v-.77h9.94c14.78,0,24.97-1.84,30.58-5.54,5.6-3.69,9.11-9.42,10.51-17.21,1.4-7.77,2.1-25.93,2.1-54.47v-167.05c0-34.41-.76-55.49-2.29-63.27-1.53-7.77-4.84-13.19-9.94-16.25-5.1-3.06-16.31-4.59-33.64-4.59h-7.26v-.76Z"/>
    <path class="cls-1" d="M2401.77,50.26v.76c-19.37,1.28-32.62,4.72-39.76,10.32-7.4,5.61-11.92,12.04-13.57,19.31-1.66,7.26-2.49,21.22-2.49,41.86v113.54c0,44.09-.76,70.72-2.29,79.9-1.28,8.16-2.87,14.78-4.78,19.88-1.91,5.1-5.29,10.7-10.13,16.82-10.7,13.51-25.87,24.34-45.49,32.49-19.63,8.15-42.31,12.23-68.05,12.23-30.33,0-56-5.16-77.03-15.48-21.03-10.32-36-23.64-44.92-39.95-8.92-16.31-13.38-38.23-13.38-65.75l.38-45.88v-105.89c0-27.27-.83-44.79-2.49-52.56-1.66-7.77-5.03-13.19-10.13-16.25-5.1-3.06-16.31-4.59-33.64-4.59h-7.64v-.76h155.59v.76h-6.88c-16.82,0-27.78,1.41-32.88,4.21-5.1,2.81-8.54,7.97-10.32,15.48-1.79,7.52-2.68,25.42-2.68,53.71v107.42c0,53.52,1.72,88.06,5.16,103.6,3.44,15.55,13.06,29.19,28.86,40.9,15.03,10.96,36.06,16.44,63.08,16.44,16.56,0,34.91-3.44,55.05-10.32,9.68-3.31,18.6-7.96,26.76-13.96,8.15-5.98,14.39-12.17,18.73-18.54,6.88-9.68,11.34-20.64,13.38-32.88,1.78-12.23,2.68-39.88,2.68-82.95v-116.21c0-19.11-1.09-32.55-3.25-40.33-2.17-7.77-6.82-13.82-13.95-18.16-7.14-4.33-19.75-7.13-37.85-8.41v-.76h113.92Z"/>
    <path class="cls-1" d="M2699.56,286.88l-7.26,95.19h-271.42v-.77h6.88c17.07,0,28.1-2.23,33.07-6.69,4.97-4.45,8.09-10.19,9.37-17.2,1.27-7.01,1.91-24.78,1.91-53.33v-167.05c0-33.13-.7-53.77-2.1-61.93-1.4-8.15-4.65-13.89-9.75-17.2-5.1-3.31-15.93-4.97-32.49-4.97v-.76h232.81l8.03,84.87h-1.15c-2.55-11.47-6.25-23.19-11.09-35.17-4.84-11.98-9.31-20.64-13.38-25.99-7.9-9.94-17.2-16.18-27.91-18.73-10.7-2.54-26.25-3.82-46.64-3.82h-47.4v153.29h36.32c16.56,0,28.16-1.4,34.79-4.2,6.62-2.8,10.95-7.07,13-12.81,2.04-5.73,3.06-17.01,3.06-33.83h1.15v116.59h-1.15c0-26.24-1.59-42.56-4.78-48.93-3.19-6.37-7.84-10.52-13.95-12.43-6.12-1.91-16.44-2.87-30.96-2.87h-37.46v91.36c0,40.27,2.61,63.97,7.84,71.11,5.22,7.14,19.17,10.7,41.86,10.7h25.61c17.83,0,32.55-2.29,44.15-6.88,11.59-4.59,22.61-14.02,33.07-28.29,10.45-14.27,18.73-34.02,24.85-59.25h1.15Z"/>
    <g>
      <path class="cls-1" d="M402.3,559.75v-64.35h-24.89v-6.48h57.27v6.48h-24.89v64.35h-7.49Z"/>
      <path class="cls-1" d="M443.68,559.75v-53.12h6.88v14.47l-.71-2.53c1.48-4.05,3.98-7.13,7.49-9.26,3.51-2.12,7.86-3.19,13.05-3.19v6.98c-.27,0-.54-.02-.81-.05-.27-.03-.54-.05-.81-.05-5.6,0-9.98,1.7-13.15,5.11-3.17,3.41-4.76,8.25-4.76,14.52v27.12h-7.18Z"/>
      <path class="cls-1" d="M504.59,560.25c-5.19,0-9.81-1.16-13.86-3.49-4.05-2.33-7.25-5.55-9.61-9.66-2.36-4.11-3.54-8.77-3.54-13.96s1.18-10.02,3.54-14.06c2.36-4.05,5.57-7.22,9.61-9.51,4.05-2.29,8.67-3.44,13.86-3.44s9.93,1.16,14.01,3.49c4.08,2.33,7.29,5.5,9.61,9.51,2.33,4.01,3.49,8.69,3.49,14.01s-1.16,9.93-3.49,14.01c-2.33,4.08-5.55,7.29-9.66,9.61-4.12,2.33-8.77,3.49-13.96,3.49ZM504.59,553.88c3.84,0,7.25-.86,10.22-2.58,2.97-1.72,5.31-4.15,7.03-7.28,1.72-3.14,2.58-6.76,2.58-10.88s-.86-7.82-2.58-10.93c-1.72-3.1-4.06-5.51-7.03-7.23-2.97-1.72-6.34-2.58-10.12-2.58s-7.15.86-10.12,2.58c-2.97,1.72-5.33,4.13-7.08,7.23-1.76,3.1-2.63,6.75-2.63,10.93s.88,7.74,2.63,10.88c1.75,3.14,4.1,5.56,7.03,7.28,2.93,1.72,6.29,2.58,10.07,2.58Z"/>
      <path class="cls-1" d="M546.38,579.38v-72.75h6.88v15.99l-.71,10.62,1.01,10.73v35.41h-7.18ZM573.8,560.25c-4.59,0-8.74-1.06-12.45-3.19-3.71-2.12-6.66-5.19-8.85-9.21-2.19-4.01-3.29-8.92-3.29-14.72s1.08-10.71,3.24-14.72c2.16-4.01,5.09-7.07,8.8-9.16,3.71-2.09,7.89-3.14,12.55-3.14,5.06,0,9.6,1.13,13.61,3.39,4.01,2.26,7.17,5.43,9.46,9.51,2.29,4.08,3.44,8.79,3.44,14.12s-1.15,10.12-3.44,14.17c-2.29,4.05-5.45,7.22-9.46,9.51-4.01,2.29-8.55,3.44-13.61,3.44ZM573.29,553.88c3.78,0,7.15-.86,10.12-2.58,2.97-1.72,5.33-4.15,7.08-7.28,1.75-3.14,2.63-6.76,2.63-10.88s-.88-7.72-2.63-10.83c-1.75-3.1-4.11-5.53-7.08-7.29-2.97-1.75-6.34-2.63-10.12-2.63s-7.17.88-10.17,2.63c-3,1.75-5.36,4.18-7.08,7.29-1.72,3.1-2.58,6.71-2.58,10.83s.86,7.74,2.58,10.88c1.72,3.14,4.08,5.56,7.08,7.28s6.39,2.58,10.17,2.58Z"/>
      <path class="cls-1" d="M618.62,494.89c-1.48,0-2.73-.51-3.74-1.52-1.01-1.01-1.52-2.23-1.52-3.64s.51-2.61,1.52-3.59c1.01-.98,2.26-1.47,3.74-1.47s2.73.47,3.74,1.42c1.01.95,1.52,2.12,1.52,3.54s-.49,2.73-1.47,3.74c-.98,1.01-2.24,1.52-3.79,1.52ZM614.98,559.75v-53.12h7.18v53.12h-7.18Z"/>
      <path class="cls-1" d="M664.26,560.25c-5.26,0-9.97-1.16-14.11-3.49-4.15-2.33-7.4-5.53-9.76-9.61-2.36-4.08-3.54-8.75-3.54-14.01s1.18-10.02,3.54-14.06c2.36-4.05,5.62-7.22,9.76-9.51,4.15-2.29,8.85-3.44,14.11-3.44,4.52,0,8.6.88,12.24,2.63,3.64,1.75,6.51,4.39,8.6,7.89l-5.36,3.64c-1.82-2.7-4.08-4.69-6.78-5.97-2.7-1.28-5.63-1.92-8.8-1.92-3.78,0-7.18.86-10.22,2.58-3.04,1.72-5.43,4.13-7.18,7.23-1.76,3.1-2.63,6.75-2.63,10.93s.88,7.83,2.63,10.93c1.75,3.1,4.15,5.51,7.18,7.23,3.03,1.72,6.44,2.58,10.22,2.58,3.17,0,6.1-.64,8.8-1.92,2.7-1.28,4.96-3.24,6.78-5.87l5.36,3.64c-2.09,3.44-4.96,6.06-8.6,7.84-3.64,1.79-7.72,2.68-12.24,2.68Z"/>
      <path class="cls-1" d="M714.14,560.25c-3.98,0-7.44-.66-10.37-1.97-2.93-1.32-5.18-3.14-6.73-5.46s-2.33-5.01-2.33-8.04c0-2.77.66-5.28,1.97-7.54,1.31-2.26,3.47-4.08,6.48-5.46,3-1.38,7.03-2.07,12.09-2.07h18.31v5.36h-18.11c-5.13,0-8.69.91-10.67,2.73-1.99,1.82-2.99,4.08-2.99,6.78,0,3.04,1.18,5.46,3.54,7.28,2.36,1.82,5.67,2.73,9.92,2.73s7.54-.93,10.47-2.78c2.93-1.85,5.07-4.54,6.42-8.04l1.62,4.96c-1.35,3.51-3.69,6.31-7.03,8.4-3.34,2.09-7.54,3.14-12.6,3.14ZM732.46,559.75v-11.74l-.3-1.92v-19.63c0-4.52-1.26-7.99-3.79-10.42s-6.29-3.64-11.28-3.64c-3.44,0-6.71.57-9.81,1.72-3.1,1.15-5.73,2.67-7.89,4.55l-3.24-5.36c2.7-2.29,5.93-4.06,9.71-5.31,3.78-1.25,7.76-1.87,11.94-1.87,6.88,0,12.19,1.7,15.94,5.11,3.74,3.41,5.62,8.58,5.62,15.53v32.99h-6.88Z"/>
      <path class="cls-1" d="M758.86,559.75v-75.08h7.18v75.08h-7.18Z"/>
      <path class="cls-1" d="M814.11,559.75v-70.83h30.56c7.89,0,14.01,1.59,18.37,4.76,4.35,3.17,6.53,7.66,6.53,13.46,0,3.85-.89,7.08-2.68,9.71-1.79,2.63-4.22,4.62-7.28,5.97-3.07,1.35-6.43,2.02-10.07,2.02l1.72-2.43c4.52,0,8.41.69,11.69,2.07,3.27,1.38,5.82,3.44,7.64,6.17,1.82,2.73,2.73,6.12,2.73,10.17,0,6-2.21,10.66-6.63,13.96-4.42,3.31-11.08,4.96-19.98,4.96h-32.58ZM821.6,553.58h24.99c6.21,0,10.96-1.06,14.27-3.19,3.31-2.12,4.96-5.51,4.96-10.17s-1.65-7.94-4.96-10.07c-3.31-2.12-8.06-3.19-14.27-3.19h-25.8v-6.17h23.37c5.67,0,10.07-1.08,13.21-3.24,3.14-2.16,4.71-5.36,4.71-9.61s-1.57-7.54-4.71-9.66-7.54-3.19-13.21-3.19h-22.56v58.48Z"/>
      <path class="cls-1" d="M910.54,560.25c-5.19,0-9.81-1.16-13.86-3.49-4.05-2.33-7.25-5.55-9.61-9.66-2.36-4.11-3.54-8.77-3.54-13.96s1.18-10.02,3.54-14.06c2.36-4.05,5.57-7.22,9.61-9.51,4.05-2.29,8.67-3.44,13.86-3.44s9.93,1.16,14.01,3.49c4.08,2.33,7.29,5.5,9.61,9.51,2.33,4.01,3.49,8.69,3.49,14.01s-1.16,9.93-3.49,14.01c-2.33,4.08-5.55,7.29-9.66,9.61-4.12,2.33-8.77,3.49-13.96,3.49ZM910.54,553.88c3.84,0,7.25-.86,10.22-2.58,2.97-1.72,5.31-4.15,7.03-7.28,1.72-3.14,2.58-6.76,2.58-10.88s-.86-7.82-2.58-10.93c-1.72-3.1-4.06-5.51-7.03-7.23-2.97-1.72-6.34-2.58-10.12-2.58s-7.15.86-10.12,2.58c-2.97,1.72-5.33,4.13-7.08,7.23-1.76,3.1-2.63,6.75-2.63,10.93s.88,7.74,2.63,10.88c1.75,3.14,4.1,5.56,7.03,7.28,2.93,1.72,6.29,2.58,10.07,2.58Z"/>
      <path class="cls-1" d="M974.28,560.25c-4.52,0-8.47-.84-11.84-2.53-3.37-1.69-5.99-4.22-7.84-7.59-1.86-3.37-2.78-7.59-2.78-12.65v-30.86h7.18v30.05c0,5.67,1.4,9.93,4.2,12.8,2.8,2.87,6.73,4.3,11.79,4.3,3.71,0,6.93-.76,9.66-2.28,2.73-1.52,4.82-3.73,6.27-6.63,1.45-2.9,2.18-6.37,2.18-10.42v-27.83h7.18v53.12h-6.88v-14.57l1.11,2.63c-1.69,3.91-4.3,6.97-7.84,9.16-3.54,2.19-7.67,3.29-12.4,3.29Z"/>
      <path class="cls-1" d="M1012.03,512.6v-5.97h32.88v5.97h-32.88ZM1037.12,560.25c-4.99,0-8.84-1.35-11.53-4.05-2.7-2.7-4.05-6.51-4.05-11.43v-49.88h7.18v49.48c0,3.1.79,5.5,2.38,7.18,1.58,1.69,3.86,2.53,6.83,2.53,3.17,0,5.8-.91,7.89-2.73l2.53,5.16c-1.42,1.28-3.12,2.23-5.11,2.83-1.99.61-4.03.91-6.12.91Z"/>
      <path class="cls-1" d="M1065.04,494.89c-1.48,0-2.73-.51-3.74-1.52-1.01-1.01-1.52-2.23-1.52-3.64s.51-2.61,1.52-3.59c1.01-.98,2.26-1.47,3.74-1.47s2.73.47,3.74,1.42c1.01.95,1.52,2.12,1.52,3.54s-.49,2.73-1.47,3.74c-.98,1.01-2.24,1.52-3.79,1.52ZM1061.4,559.75v-53.12h7.18v53.12h-7.18Z"/>
      <path class="cls-1" d="M1109.77,560.25c-5.06,0-9.6-1.15-13.61-3.44-4.01-2.29-7.17-5.46-9.46-9.51-2.29-4.05-3.44-8.77-3.44-14.17s1.15-10.03,3.44-14.12c2.29-4.08,5.45-7.25,9.46-9.51,4.01-2.26,8.55-3.39,13.61-3.39,4.72,0,8.92,1.05,12.6,3.14,3.68,2.09,6.59,5.14,8.75,9.16,2.16,4.01,3.24,8.92,3.24,14.72s-1.1,10.71-3.29,14.72c-2.19,4.01-5.13,7.08-8.8,9.21-3.68,2.12-7.84,3.19-12.5,3.19ZM1110.27,553.88c3.78,0,7.17-.86,10.17-2.58,3-1.72,5.36-4.15,7.08-7.28,1.72-3.14,2.58-6.76,2.58-10.88s-.86-7.72-2.58-10.83c-1.72-3.1-4.08-5.53-7.08-7.29-3-1.75-6.39-2.63-10.17-2.63s-7.05.88-10.02,2.63c-2.97,1.75-5.33,4.18-7.08,7.29-1.76,3.1-2.63,6.71-2.63,10.83s.88,7.74,2.63,10.88c1.75,3.14,4.11,5.56,7.08,7.28,2.97,1.72,6.31,2.58,10.02,2.58ZM1130,579.38v-35.41l1.01-10.73-.71-10.62v-15.99h6.88v72.75h-7.18Z"/>
      <path class="cls-1" d="M1179.18,560.25c-4.52,0-8.47-.84-11.84-2.53-3.37-1.69-5.99-4.22-7.84-7.59-1.86-3.37-2.78-7.59-2.78-12.65v-30.86h7.18v30.05c0,5.67,1.4,9.93,4.2,12.8,2.8,2.87,6.73,4.3,11.79,4.3,3.71,0,6.93-.76,9.66-2.28,2.73-1.52,4.82-3.73,6.27-6.63,1.45-2.9,2.18-6.37,2.18-10.42v-27.83h7.18v53.12h-6.88v-14.57l1.11,2.63c-1.69,3.91-4.3,6.97-7.84,9.16-3.54,2.19-7.67,3.29-12.4,3.29Z"/>
      <path class="cls-1" d="M1247.78,560.25c-5.53,0-10.39-1.16-14.57-3.49-4.18-2.33-7.46-5.53-9.82-9.61-2.36-4.08-3.54-8.75-3.54-14.01s1.13-9.92,3.39-13.96c2.26-4.05,5.36-7.23,9.31-9.56,3.95-2.33,8.38-3.49,13.31-3.49s9.43,1.13,13.3,3.39c3.88,2.26,6.93,5.43,9.16,9.51,2.23,4.08,3.34,8.79,3.34,14.12,0,.34-.02.69-.05,1.06-.03.37-.05.76-.05,1.16h-46.24v-5.36h42.4l-2.83,2.12c0-3.85-.83-7.27-2.48-10.27-1.65-3-3.9-5.35-6.73-7.03-2.83-1.69-6.11-2.53-9.81-2.53s-6.92.84-9.82,2.53c-2.9,1.69-5.16,4.05-6.78,7.08-1.62,3.04-2.43,6.51-2.43,10.42v1.11c0,4.05.89,7.61,2.68,10.67,1.79,3.07,4.28,5.46,7.49,7.18,3.2,1.72,6.86,2.58,10.98,2.58,3.24,0,6.26-.57,9.06-1.72,2.8-1.15,5.21-2.9,7.24-5.26l4.05,4.65c-2.36,2.83-5.31,4.99-8.85,6.48-3.54,1.48-7.44,2.23-11.69,2.23Z"/>
      <path class="cls-1" d="M1321.85,559.75h-7.49v-70.83h7.49v70.83ZM1366.87,527.07h-45.84v-6.58h45.84v6.58ZM1366.16,488.92h7.39v70.83h-7.39v-70.83Z"/>
      <path class="cls-1" d="M1416.76,560.25c-5.19,0-9.81-1.16-13.86-3.49-4.05-2.33-7.25-5.55-9.61-9.66-2.36-4.11-3.54-8.77-3.54-13.96s1.18-10.02,3.54-14.06c2.36-4.05,5.57-7.22,9.61-9.51,4.05-2.29,8.67-3.44,13.86-3.44s9.93,1.16,14.01,3.49c4.08,2.33,7.29,5.5,9.61,9.51,2.33,4.01,3.49,8.69,3.49,14.01s-1.16,9.93-3.49,14.01c-2.33,4.08-5.55,7.29-9.66,9.61-4.12,2.33-8.77,3.49-13.96,3.49ZM1416.76,553.88c3.84,0,7.25-.86,10.22-2.58,2.97-1.72,5.31-4.15,7.03-7.28,1.72-3.14,2.58-6.76,2.58-10.88s-.86-7.82-2.58-10.93c-1.72-3.1-4.06-5.51-7.03-7.23-2.97-1.72-6.34-2.58-10.12-2.58s-7.15.86-10.12,2.58c-2.97,1.72-5.33,4.13-7.08,7.23-1.76,3.1-2.63,6.75-2.63,10.93s.88,7.74,2.63,10.88c1.75,3.14,4.1,5.56,7.03,7.28,2.93,1.72,6.29,2.58,10.07,2.58Z"/>
      <path class="cls-1" d="M1450.25,512.6v-5.97h32.88v5.97h-32.88ZM1475.34,560.25c-4.99,0-8.84-1.35-11.53-4.05-2.7-2.7-4.05-6.51-4.05-11.43v-49.88h7.18v49.48c0,3.1.79,5.5,2.38,7.18,1.58,1.69,3.86,2.53,6.83,2.53,3.17,0,5.8-.91,7.89-2.73l2.53,5.16c-1.42,1.28-3.12,2.23-5.11,2.83-1.99.61-4.03.91-6.12.91Z"/>
      <path class="cls-1" d="M1520.27,560.25c-5.53,0-10.39-1.16-14.57-3.49-4.18-2.33-7.46-5.53-9.82-9.61-2.36-4.08-3.54-8.75-3.54-14.01s1.13-9.92,3.39-13.96c2.26-4.05,5.36-7.23,9.31-9.56,3.95-2.33,8.38-3.49,13.31-3.49s9.43,1.13,13.3,3.39c3.88,2.26,6.93,5.43,9.16,9.51,2.23,4.08,3.34,8.79,3.34,14.12,0,.34-.02.69-.05,1.06-.03.37-.05.76-.05,1.16h-46.24v-5.36h42.4l-2.83,2.12c0-3.85-.83-7.27-2.48-10.27-1.65-3-3.9-5.35-6.73-7.03-2.83-1.69-6.11-2.53-9.81-2.53s-6.92.84-9.82,2.53c-2.9,1.69-5.16,4.05-6.78,7.08-1.62,3.04-2.43,6.51-2.43,10.42v1.11c0,4.05.89,7.61,2.68,10.67,1.79,3.07,4.28,5.46,7.49,7.18,3.2,1.72,6.86,2.58,10.98,2.58,3.24,0,6.26-.57,9.06-1.72,2.8-1.15,5.21-2.9,7.24-5.26l4.05,4.65c-2.36,2.83-5.31,4.99-8.85,6.48-3.54,1.48-7.44,2.23-11.69,2.23Z"/>
      <path class="cls-1" d="M1558.82,559.75v-75.08h7.18v75.08h-7.18Z"/>
    </g>
  </g>
  <g>
    <path class="cls-1" d="M1106.14,214.79c-.01-1.03-.04-2.04-.08-3.06-.03-1.11-.07-2.21-.12-3.32-.05-.88-.1-1.76-.17-2.65-.03-.6-.07-1.2-.12-1.81-.05-.8-.12-1.59-.2-2.39-4.8-.54-9.66-.88-14.53-1.04-.05-.01-.09-.01-.15-.01-1.86-.05-3.71-.08-5.58-.08-.39,0-.79,0-1.18.01-47.4.3-91.92,18.91-125.48,52.46-2.55,2.55-5.02,5.18-7.41,7.85-1.13,1.28-2.25,2.57-3.34,3.87-.04.05-.08.09-.12.15-2.42,2.89-4.74,5.85-6.96,8.87-3.66,4.97-7.05,10.11-10.16,15.39-.58,1-1.16,1.99-1.72,3-3.25-9.39-5.01-19.46-5.01-29.94,0-13.2,2.79-25.75,7.82-37.1.72-1.55,1.46-3.07,2.23-4.59.37-.77.77-1.52,1.16-2.28.03-.07.07-.15.11-.22.36-.68.73-1.37,1.1-2.05.05-.11.11-.22.18-.33,1.3-2.39,2.66-4.74,4.09-7.06,2.68-4.4,5.57-8.69,8.67-12.85,1.16-1.58,2.37-3.14,3.6-4.68.18-.23.36-.45.54-.67,2.03-2.53,4.16-5.01,6.35-7.44,1.93-2.14,3.93-4.23,5.98-6.28,27.09-27.08,61.67-43.89,99.09-48.52,11.18,16.87,19.3,35.92,23.55,56.39.13.65.27,1.32.39,1.98.13.68.26,1.37.38,2.05.13.72.25,1.42.37,2.14.12.74.24,1.47.35,2.21.1.63.2,1.28.28,1.91.08.52.15,1.05.22,1.57,0,.03.01.06.01.08,4.97.13,9.89.47,14.74,1-.09-.85-.2-1.7-.3-2.54-.19-1.41-.38-2.82-.6-4.22-.1-.68-.22-1.38-.32-2.06-.02-.06-.03-.12-.03-.19-.36-2.16-.77-4.32-1.2-6.45-.19-.93-.38-1.87-.59-2.79-.29-1.29-.59-2.57-.9-3.86-.19-.73-.37-1.46-.56-2.19-.21-.81-.43-1.62-.65-2.43-.23-.81-.46-1.62-.68-2.42-.24-.83-.49-1.67-.75-2.49-.16-.52-.32-1.04-.49-1.56-.26-.82-.53-1.65-.8-2.46-.28-.86-.57-1.72-.88-2.58-.19-.56-.38-1.11-.58-1.66-.16-.44-.32-.86-.48-1.3-.32-.88-.65-1.75-1-2.62-.32-.82-.64-1.63-.98-2.45-.32-.81-.66-1.62-1.01-2.43-3.16-7.58-6.88-14.89-11.06-21.88-2.05-3.43-4.21-6.78-6.48-10.05-.93-1.34-1.88-2.67-2.84-3.97-.01-.01-.01-.02-.02-.03-15.2-20.62-34.75-37.83-57.32-50.26-3.86-2.13-7.81-4.12-11.85-5.95-.02.01-.04.02-.06.03-5.34,2.78-10.56,5.84-15.61,9.17-10.15,6.67-19.67,14.43-28.46,23.21-10.97,10.97-20.34,23.11-27.99,36.14-.81,1.37-1.6,2.75-2.37,4.14-.78-1.39-1.57-2.77-2.37-4.14-7.66-13.03-17.02-25.18-28-36.14-8.54-8.54-17.79-16.11-27.62-22.66-4.99-3.32-10.14-6.39-15.41-9.17-.02-.01-.03-.02-.05-.03-3.95,1.83-7.82,3.81-11.61,5.92-12.86,7.19-24.72,15.93-35.34,25.99-3.3,3.11-6.46,6.35-9.51,9.7-4.11,4.52-7.99,9.27-11.62,14.21-.01.01-.02.03-.03.04.04-.01.07,0,.1,0,5.6.47,11.13,1.19,16.58,2.16h-.01s.05.02.07.02h.01c7.81-9.6,16.68-18.27,26.44-25.85,2.55-1.98,5.17-3.89,7.84-5.72,6.65-4.57,13.66-8.65,20.98-12.2,11.59,7.02,22.41,15.5,32.24,25.33,1.15,1.15,2.28,2.31,3.38,3.49,9.96,10.52,18.41,22.1,25.28,34.48.13.24.27.47.39.71l.4.75c.76,1.39,1.5,2.8,2.2,4.22.27.54.54,1.08.8,1.62,5.51,11.78,8.58,24.91,8.58,38.75,0,9.63-1.48,18.9-4.24,27.63-.61-1.1-1.23-2.19-1.88-3.27-4.82-8.22-10.33-16.09-16.5-23.53-1.11-1.35-2.25-2.68-3.41-3.99-2.58-2.95-5.27-5.82-8.07-8.62-26.82-26.83-60.66-44.1-97.36-50.1-5.46-.9-10.98-1.55-16.55-1.93-.03,0-.05-.01-.08,0-2.26,3.25-4.41,6.58-6.44,9.99-3.43,5.75-6.55,11.7-9.28,17.84-.29.65-.58,1.31-.87,1.96-.32.75-.65,1.5-.96,2.26-.32.76-.63,1.51-.94,2.27-.33.82-.65,1.63-.98,2.45-.34.87-.67,1.74-1,2.62-.22.6-.45,1.22-.66,1.84-.17.46-.32.91-.49,1.37-.27.78-.53,1.56-.79,2.33h0c-.27.83-.54,1.65-.8,2.48-.17.5-.32,1.01-.48,1.51-.25.83-.5,1.66-.74,2.5-.23.8-.46,1.6-.68,2.41-.23.81-.45,1.62-.65,2.43-.2.71-.37,1.41-.54,2.13-.08.33-.17.66-.25,1-.27,1.11-.52,2.21-.76,3.33-.28,1.26-.54,2.52-.79,3.79-.17.86-.33,1.72-.49,2.58-.15.81-.29,1.63-.43,2.45-.37,2.19-.7,4.39-.96,6.6-.08.71-.18,1.41-.26,2.12,4.85-.46,9.77-.74,14.73-.81,0-.02,0-.04.01-.07.01-.11.03-.23.04-.34.01-.12.03-.25.05-.37.03-.23.06-.47.09-.71.1-.76.22-1.51.33-2.27.25-1.59.52-3.17.81-4.75.12-.67.26-1.35.39-2.02.13-.65.26-1.31.4-1.95.18-.84.36-1.68.55-2.51,4.38-19.19,12.17-37.09,22.7-53.04,36.68,4.95,70.56,21.67,97.18,48.28,4.38,4.38,8.5,8.96,12.32,13.71.13.17.26.32.38.49,1.23,1.54,2.44,3.08,3.6,4.66,3.16,4.23,6.11,8.59,8.83,13.06,1.43,2.32,2.79,4.68,4.09,7.06.03.05.05.1.08.16.82,1.5,1.62,3.02,2.39,4.54.07.13.13.27.2.4.94,1.87,1.84,3.75,2.7,5.64-.2.5-.39,1.01-.58,1.51-4.06,10.67-6.27,22.23-6.27,34.31,0,6.23.59,12.33,1.73,18.25-1.51-2.27-3.09-4.51-4.72-6.72-2.21-3.01-4.53-5.96-6.95-8.85-.04-.05-.08-.09-.12-.15-1.09-1.3-2.2-2.59-3.34-3.87-1.37-1.55-2.77-3.07-4.2-4.57-1.06-1.11-2.13-2.2-3.21-3.28l-.44-.44c-33.78-33.55-78.58-52.04-126.22-52.04-1.11,0-2.22.01-3.33.03-4.93.08-9.81.37-14.67.86h-.01c-.01.11-.02.22-.02.33-.13,1.49-.25,2.99-.34,4.49-.05.75-.09,1.49-.13,2.25-.02.39-.03.79-.04,1.18h0c-.04.71-.06,1.4-.08,2.11-.03.75-.05,1.49-.06,2.24-.01.3-.02.6-.02.9-.01.88-.02,1.77-.02,2.66,0,1.52.02,3.05.06,4.56l.03,1.03h0c.03,1.16.08,2.31.13,3.45v.08c.04.74.08,1.47.13,2.21.04.71.09,1.4.15,2.11.02.31.04.63.07.94.09,1.15.2,2.3.31,3.45.09.87.19,1.75.28,2.62.25,2.17.54,4.33.87,6.47.11.72.23,1.43.34,2.15,1.93,11.69,5.01,23,9.12,33.8.01.02.02.04.02.06.01-.01.03-.01.04-.01,1.11-.04,2.22-.07,3.33-.09,1.28-.03,2.55-.04,3.84-.04,1.09,0,2.18.01,3.26.03,1.75.03,3.51.08,5.25.17,0,0-.01-.01-.01-.02-.52-1.23-1.03-2.48-1.51-3.73-.68-1.72-1.34-3.45-1.95-5.2-2.72-7.66-4.87-15.57-6.4-23.69-.49-2.54-.91-5.09-1.28-7.68-.08-.63-.17-1.26-.25-1.89-.02-.13-.03-.27-.05-.4-.17-1.27-.31-2.53-.44-3.81-.01-.07-.02-.16-.02-.23-.13-1.29-.25-2.58-.34-3.88-.01-.05-.01-.11-.01-.18-.3-4.07-.46-8.16-.46-12.29,0-1.01.01-2,.03-3.01.02-1.23.04-2.47.09-3.69h.02c1.15-.03,2.31-.04,3.49-.04,44.48,0,86.36,16.96,118.25,47.8.68.67,1.37,1.34,2.05,2.02.57.57,1.14,1.15,1.7,1.73.7.71,1.39,1.43,2.06,2.16,0,.01.01.01.01.01.79.84,1.57,1.68,2.33,2.53.61.67,1.2,1.35,1.79,2.02.46.51.9,1.03,1.34,1.56.41.47.81.94,1.2,1.42.48.56.94,1.12,1.4,1.69.15.18.28.34.41.52,1.27,1.56,2.49,3.13,3.68,4.73,3.25,4.31,6.26,8.75,9.05,13.3,1.35,2.2,2.65,4.43,3.88,6.68.12.21.24.43.35.63.03.05.05.09.08.15.23.41.46.84.66,1.26.23.41.45.82.65,1.23.27.51.53,1.01.78,1.52,6.2,12.37,9.69,26.31,9.69,41.06,0,10.55-1.78,20.69-5.08,30.14-.36-.62-.73-1.24-1.09-1.87-2.2-3.76-4.55-7.45-7.04-11.05-2.61-3.79-5.39-7.49-8.32-11.09-.58-.72-1.16-1.42-1.75-2.13-1.13-1.36-2.28-2.7-3.46-4.01-.64-.73-1.3-1.45-1.96-2.17-.92-1.03-1.88-2.03-2.83-3.03-.86-.9-1.73-1.78-2.61-2.67-31.37-31.37-72.34-49.67-116.28-52.16-3.44-.21-6.9-.3-10.37-.3h-.56c-1.66.01-3.32.04-4.98.08h-.04c.55,1.34,1.11,2.66,1.69,3.97.92,2.12,1.89,4.2,2.89,6.28,15.69,32.25,40.89,59.02,71.97,76.65,2.87,1.63,5.79,3.18,8.76,4.65,1.55.77,3.1,1.5,4.67,2.22.89.41,1.81.83,2.71,1.22,13.22,5.81,27.27,10.04,41.94,12.46.48.08.94.17,1.42.24.25.04.49.07.74.1.75.11,1.48.22,2.23.32.65.09,1.31.19,1.96.27.62.07,1.24.16,1.88.23.55.07,1.1.13,1.65.19,1.78.2,3.58.36,5.38.5.06.01.12.01.19.02h.05c.65.05,1.31.09,1.96.15.55.03,1.11.06,1.66.09.11.01.22.01.33.02.1.01.22.02.32.02.07,0,.16,0,.23.01.18.01.36.02.54.02.57.03,1.15.05,1.72.07.36.01.73.03,1.1.04.38.01.78.02,1.17.03.27.01.54.02.81.02.17.01.33.01.5.01.46.01.91.01,1.38.02.62.01,1.24.01,1.87.01.51,0,1.01,0,1.51-.01h.22c.77-.01,1.54-.02,2.3-.04.77-.01,1.54-.03,2.3-.06h.02s.09,0,.13-.01c.11,0,.22,0,.33-.01.09,0,.19,0,.28-.01.92-.03,1.85-.07,2.76-.12.5-.03.99-.06,1.47-.09.04,0,.08,0,.12-.01,2.29-.15,4.57-.33,6.85-.57.65-.06,1.32-.13,1.97-.21.06-.01.12-.02.19-.02.67-.08,1.35-.17,2.02-.25.73-.09,1.45-.19,2.17-.29.31-.04.61-.08.91-.12.45-.06.88-.13,1.33-.21.73-.11,1.46-.23,2.19-.34,1.78-.3,3.55-.62,5.31-.96.12-.03.24-.05.35-.07.82-.17,1.64-.33,2.46-.51.77-.17,1.54-.33,2.29-.51.72-.17,1.43-.33,2.15-.51.81-.2,1.61-.39,2.42-.6,1.22-.32,2.45-.64,3.67-.99,7.6-2.1,14.99-4.73,22.14-7.81.89-.38,1.78-.78,2.67-1.17,1.6-.72,3.17-1.45,4.74-2.22,3.04-1.47,6.02-3.03,8.95-4.67,8.1-4.53,15.81-9.69,23.05-15.39,3.48-2.73,6.84-5.58,10.09-8.56,16.38-14.99,29.93-33.03,39.74-53.21,1.63-3.34,3.15-6.73,4.55-10.19h-.03c-2.57-.11-5.16-.17-7.75-.17s-5.39.06-8.08.19c-44.06,1.94-85.24,19.74-116.95,50.67-.55.53-1.09,1.07-1.63,1.61-.7.7-1.38,1.39-2.05,2.1-.19.19-.37.37-.55.57-.96,1-1.91,2-2.84,3.03-.66.72-1.32,1.44-1.96,2.17-1.17,1.32-2.33,2.66-3.46,4.01-.59.71-1.18,1.42-1.75,2.14-2.94,3.6-5.71,7.3-8.32,11.09-.96,1.39-1.9,2.79-2.81,4.2,1.57-6.9,2.39-14.07,2.39-21.43,0-12.04-2.2-23.58-6.23-34.23h0c.1-.23.2-.44.3-.64.23-.5.46-1,.7-1.49.62-1.33,1.27-2.66,1.94-3.97.05-.09.09-.19.15-.28.72-1.44,1.46-2.86,2.23-4.27.06-.1.11-.22.18-.32.11-.21.23-.43.35-.63,1.23-2.25,2.53-4.48,3.88-6.68,2.74-4.48,5.71-8.85,8.89-13.09,1.19-1.6,2.42-3.18,3.68-4.74.19-.24.37-.48.57-.72,3.69-4.54,7.65-8.92,11.85-13.12,32.14-32.13,74.86-49.83,120.31-49.83,1.86,0,3.72.03,5.57.09,0,.08.01.16.01.24v.2c.04.9.07,1.81.09,2.71v.41c.02,1.03.03,2.06.03,3.09,0,3.43-.1,6.85-.31,10.24-.22,3.5-.55,6.97-.99,10.42-.24,1.85-.51,3.68-.8,5.52-2.09,12.79-5.66,25.09-10.57,36.71,0,.01-.01.02-.01.02,2.06-.07,4.14-.1,6.22-.1,3.14,0,6.27.08,9.37.24h.04s.02-.05.03-.07c2.83-7.44,5.18-15.11,6.98-22.99.83-3.59,1.56-7.22,2.17-10.89.36-2.18.68-4.38.96-6.58.04-.32.08-.63.11-.95h0c.24-1.9.44-3.81.6-5.73.07-.75.13-1.49.19-2.24.11-1.49.21-3,.29-4.5.01-.23.02-.45.03-.67.06-1.29.1-2.57.13-3.86.04-1.51.06-3.03.06-4.55,0-.9-.01-1.81-.02-2.71ZM930.93,146.63c.94-2.06,1.92-4.12,2.95-6.14.76-1.52,1.56-3.04,2.38-4.54.05-.09.1-.2.16-.29,7.72-14.15,17.51-27.27,29.22-38.98,10.09-10.09,21.22-18.76,33.17-25.89,21.82,10.37,40.97,25.48,56.13,43.97,0,.01.01.02.02.03.03,0,.05-.01.08-.01-.01-.01-.02-.02-.02-.03,5.5-.9,11.07-1.58,16.72-1.97.98,1.31,1.92,2.62,2.84,3.96-5.61.32-11.18.9-16.69,1.74-37.48,5.7-72.05,23.1-99.36,50.42-2.8,2.8-5.49,5.67-8.07,8.62-1.16,1.32-2.3,2.65-3.41,3.99-4.05,4.88-7.8,9.94-11.27,15.17.88-5.21,1.33-10.55,1.33-16,0-11.97-2.18-23.44-6.17-34.05ZM915.81,379.3c-1.04-.08-2.07-.18-3.1-.28-.04,0-.08-.01-.12-.01-.36-.04-.73-.07-1.09-.11-.78-.09-1.56-.18-2.33-.28-1.03-.12-2.06-.26-3.09-.42-1.39-.2-2.77-.41-4.15-.65-10.61-1.81-20.88-4.65-30.69-8.41-1.57-.6-3.13-1.22-4.67-1.88-33.91-14.25-61.99-39.7-79.61-71.69,37.52,3.56,72.45,19.33,100.14,45.39,1.28,1.19,2.53,2.42,3.78,3.66.74.74,1.46,1.47,2.18,2.22.96,1,1.91,2,2.84,3.02.46.49.9.99,1.35,1.48,1.89,2.1,3.71,4.23,5.48,6.4.15.18.28.34.41.52,1.27,1.56,2.49,3.13,3.68,4.73,3.25,4.31,6.26,8.75,9.05,13.3.64,1.05,1.28,2.11,1.89,3.16-.65-.03-1.3-.08-1.94-.15ZM940.64,376.28c2.74-4.48,5.71-8.85,8.89-13.09,1.19-1.6,2.42-3.18,3.68-4.74.19-.24.37-.48.57-.72,1.76-2.17,3.59-4.31,5.48-6.4.43-.47.84-.93,1.28-1.4.92-1.02,1.88-2.02,2.83-3.02.6-.63,1.21-1.26,1.84-1.87.13-.15.28-.29.43-.44,1.13-1.13,2.26-2.23,3.41-3.31.11-.12.24-.24.36-.35,28.22-26.56,63.97-42.43,102.32-45.57-13.08,23.83-31.96,44.05-54.74,58.7-2.68,1.74-5.4,3.39-8.18,4.96-5.83,3.29-11.88,6.22-18.12,8.79-1.57.64-3.14,1.26-4.74,1.86-10.07,3.76-20.62,6.55-31.53,8.24h0c-1.37.24-2.75.44-4.14.6-.79.1-1.58.2-2.35.29-1.19.13-2.38.26-3.57.36-1.21.11-2.43.22-3.65.29-.67.05-1.35.09-2.02.12.64-1.11,1.3-2.21,1.97-3.3Z"/>
    <path class="cls-1" d="M874.86,64.46s-.07.02-.1.03c.02.01.04.03.06.04.03-.01.06-.02.09-.04,9.26-3.29,18.92-5.78,28.87-7.36.8-.12,1.61-.25,2.41-.36.82-.11,1.63-.23,2.45-.33,1.04-.13,2.09-.26,3.12-.36,1-.11,2-.21,3-.3.33-.03.65-.05.98-.08,1-.08,2-.16,3-.22.05-.01.1-.01.15-.01,3.45-.21,6.92-.32,10.42-.32,1.15,0,2.29.01,3.44.03,1.65.03,3.3.09,4.93.18,1.64.08,3.27.19,4.9.32.24.02.47.03.71.06.87.07,1.73.15,2.6.24.22.02.45.04.66.07.85.08,1.69.19,2.54.29,1.04.12,2.09.26,3.12.4,10.34,1.47,20.37,3.91,29.99,7.24.07.02.15.04.21.07.02-.01.04-.03.06-.04-.07-.02-.15-.05-.22-.07,5.02-3.41,10.22-6.59,15.58-9.5.02-.01.03-.02.04-.03-8.88-3.74-18.12-6.77-27.68-9.03-1.37-.32-2.74-.63-4.11-.92-2.54-.54-5.09-1.03-7.68-1.45-.01.01-.02.01-.02,0-2.18-.36-4.37-.68-6.58-.96-1.47-.19-2.97-.35-4.45-.51-1.48-.15-2.97-.28-4.46-.39-1.5-.11-3.01-.21-4.51-.29-1.5-.07-3.01-.13-4.52-.17-1.51-.04-3.04-.06-4.56-.06-2.28,0-4.56.04-6.83.13-.54.02-1.08.04-1.62.06-2.48.11-4.94.29-7.39.51-.74.06-1.48.13-2.23.21-1.48.16-2.96.32-4.43.51-.74.09-1.47.2-2.21.3-.74.1-1.46.21-2.2.32-.49.07-.99.16-1.47.23-.41.07-.84.13-1.26.21-14.04,2.35-27.5,6.38-40.21,11.85.02.01.03.02.05.03,5.28,2.92,10.41,6.08,15.35,9.48Z"/>
  </g>
</svg>